<?xml version="1.0" encoding="UTF-8"?>
<svg xmlns="http://www.w3.org/2000/svg" xmlns:xlink="http://www.w3.org/1999/xlink" viewBox="0 0 70.15 66.3">
  <defs>
    <style>
      .cls-1 {
        fill: url(#radial-gradient-5);
      }

      .cls-1, .cls-2, .cls-3, .cls-4, .cls-5, .cls-6, .cls-7, .cls-8, .cls-9, .cls-10, .cls-11, .cls-12, .cls-13, .cls-14, .cls-15, .cls-16, .cls-17, .cls-18, .cls-19, .cls-20, .cls-21, .cls-22, .cls-23, .cls-24, .cls-25, .cls-26, .cls-27, .cls-28, .cls-29, .cls-30, .cls-31, .cls-32, .cls-33, .cls-34 {
        fill-rule: evenodd;
      }

      .cls-1, .cls-3, .cls-9, .cls-11, .cls-14, .cls-18, .cls-19, .cls-23, .cls-26, .cls-28, .cls-30, .cls-32, .cls-33 {
        mix-blend-mode: multiply;
      }

      .cls-2 {
        fill: url(#radial-gradient-6);
      }

      .cls-2, .cls-4, .cls-16, .cls-17, .cls-20 {
        mix-blend-mode: screen;
      }

      .cls-3 {
        fill: url(#New_Gradient_Swatch_76);
      }

      .cls-4 {
        fill: url(#radial-gradient-4);
      }

      .cls-5 {
        fill: url(#radial-gradient-2);
      }

      .cls-6 {
        fill: url(#New_Gradient_Swatch_3);
      }

      .cls-7 {
        fill: url(#radial-gradient-21);
      }

      .cls-8 {
        fill: url(#radial-gradient-19);
      }

      .cls-9 {
        fill: url(#New_Gradient_Swatch_76-8);
      }

      .cls-10 {
        fill: url(#radial-gradient-20);
      }

      .cls-11 {
        fill: url(#New_Gradient_Swatch_76-4);
      }

      .cls-12 {
        fill: url(#radial-gradient-10);
      }

      .cls-13 {
        fill: url(#radial-gradient-23);
      }

      .cls-35 {
        isolation: isolate;
      }

      .cls-14 {
        fill: url(#radial-gradient-13);
      }

      .cls-15 {
        fill: url(#radial-gradient-18);
      }

      .cls-16 {
        fill: url(#radial-gradient-16);
      }

      .cls-17 {
        fill: url(#radial-gradient-17);
      }

      .cls-18 {
        fill: url(#radial-gradient-15);
      }

      .cls-19 {
        fill: url(#New_Gradient_Swatch_76-6);
      }

      .cls-20 {
        fill: url(#radial-gradient-3);
      }

      .cls-21 {
        fill: url(#radial-gradient-11);
      }

      .cls-22 {
        fill: url(#radial-gradient-8);
      }

      .cls-23 {
        fill: url(#radial-gradient-12);
      }

      .cls-24 {
        fill: url(#radial-gradient-7);
      }

      .cls-25 {
        fill: url(#radial-gradient-24);
      }

      .cls-26 {
        fill: url(#New_Gradient_Swatch_76-2);
      }

      .cls-27 {
        fill: url(#radial-gradient-14);
      }

      .cls-28 {
        fill: url(#radial-gradient-9);
        opacity: .5;
      }

      .cls-29 {
        fill: url(#radial-gradient);
      }

      .cls-30 {
        fill: url(#New_Gradient_Swatch_76-3);
      }

      .cls-31 {
        fill: url(#radial-gradient-22);
      }

      .cls-32 {
        fill: url(#New_Gradient_Swatch_76-5);
      }

      .cls-33 {
        fill: url(#New_Gradient_Swatch_76-7);
      }

      .cls-34 {
        fill: url(#New_Gradient_Swatch_22);
      }
    </style>
    <radialGradient id="radial-gradient" cx="13.81" cy="21.84" fx="13.81" fy="21.84" r="20.06" gradientTransform="translate(-1 .93) rotate(-4.54)" gradientUnits="userSpaceOnUse">
      <stop offset="0" stop-color="#9ecfff"/>
      <stop offset=".17" stop-color="#bdf"/>
      <stop offset=".39" stop-color="#d9ecff"/>
      <stop offset=".6" stop-color="#eef6ff"/>
      <stop offset=".8" stop-color="#fafcff"/>
      <stop offset="1" stop-color="#fff"/>
    </radialGradient>
    <radialGradient id="New_Gradient_Swatch_76" data-name="New Gradient Swatch 76" cx="13.48" cy="27.07" fx="13.48" fy="27.07" r="21.6" gradientTransform="translate(-1 .93) rotate(-4.54)" gradientUnits="userSpaceOnUse">
      <stop offset="0" stop-color="#aac2e6"/>
      <stop offset="1" stop-color="#fff"/>
    </radialGradient>
    <radialGradient id="radial-gradient-2" cx="26.13" cy="20.66" fx="26.13" fy="20.66" r="51.33" gradientUnits="userSpaceOnUse">
      <stop offset="0" stop-color="#009ced"/>
      <stop offset=".92" stop-color="#4e3bf5"/>
    </radialGradient>
    <radialGradient id="radial-gradient-3" cx="36.66" cy="37.56" fx="36.66" fy="37.56" r="35.59" gradientUnits="userSpaceOnUse">
      <stop offset=".04" stop-color="#000"/>
      <stop offset=".84" stop-color="#000"/>
      <stop offset=".85" stop-color="#0d1415"/>
      <stop offset=".9" stop-color="#3e6167"/>
      <stop offset=".93" stop-color="#659ea8"/>
      <stop offset=".96" stop-color="#81cad7"/>
      <stop offset=".99" stop-color="#92e5f4"/>
      <stop offset="1" stop-color="#99f0ff"/>
    </radialGradient>
    <radialGradient id="radial-gradient-4" cx="20.16" cy="12.14" fx="20.16" fy="12.14" r="51.96" gradientUnits="userSpaceOnUse">
      <stop offset="0" stop-color="#1fceff"/>
      <stop offset="1" stop-color="#000"/>
    </radialGradient>
    <radialGradient id="radial-gradient-5" cx="26.38" cy="23" fx="26.38" fy="23" r="48.81" gradientUnits="userSpaceOnUse">
      <stop offset=".56" stop-color="#f5f5ff"/>
      <stop offset=".64" stop-color="#efe9fa"/>
      <stop offset=".79" stop-color="#e1cced"/>
      <stop offset=".99" stop-color="#c99cd8"/>
      <stop offset="1" stop-color="#c899d7"/>
    </radialGradient>
    <radialGradient id="New_Gradient_Swatch_22" data-name="New Gradient Swatch 22" cx="25.8" cy="26.02" fx="25.8" fy="26.02" r="33.96" gradientUnits="userSpaceOnUse">
      <stop offset="0" stop-color="#91eb00"/>
      <stop offset="1" stop-color="#05a100"/>
    </radialGradient>
    <radialGradient id="radial-gradient-6" cx="31.11" cy="19.02" fx="31.11" fy="19.02" r="36.01" gradientUnits="userSpaceOnUse">
      <stop offset="0" stop-color="#8fe561"/>
      <stop offset="1" stop-color="#000"/>
    </radialGradient>
    <radialGradient id="radial-gradient-7" cx="29.36" cy="15.54" fx="29.36" fy="15.54" r="42.5" gradientUnits="userSpaceOnUse">
      <stop offset="0" stop-color="#94ffe1"/>
      <stop offset=".18" stop-color="#87f8dc"/>
      <stop offset=".51" stop-color="#67e8d0"/>
      <stop offset=".95" stop-color="#33cebd"/>
      <stop offset="1" stop-color="#2dcbbb"/>
    </radialGradient>
    <radialGradient id="radial-gradient-8" cx="15.96" cy="30.21" fx="15.96" fy="30.21" r="28.62" gradientUnits="userSpaceOnUse">
      <stop offset="0" stop-color="#dede00"/>
      <stop offset=".15" stop-color="#d1d100"/>
      <stop offset=".42" stop-color="#b1b100"/>
      <stop offset=".47" stop-color="#abab00"/>
      <stop offset=".51" stop-color="#a5a500"/>
      <stop offset=".77" stop-color="#7d7d00"/>
      <stop offset=".91" stop-color="#6e6e00"/>
    </radialGradient>
    <radialGradient id="radial-gradient-9" cx="22.92" cy="36.14" fx="22.92" fy="36.14" r="12.91" gradientUnits="userSpaceOnUse">
      <stop offset="0" stop-color="#fff"/>
      <stop offset="1" stop-color="#093"/>
    </radialGradient>
    <radialGradient id="radial-gradient-10" cx="46.29" cy="25.84" fx="46.29" fy="25.84" r="26.58" gradientUnits="userSpaceOnUse">
      <stop offset="0" stop-color="#f0ab54"/>
      <stop offset="1" stop-color="#b87126"/>
    </radialGradient>
    <radialGradient id="New_Gradient_Swatch_3" data-name="New Gradient Swatch 3" cx="37.53" cy="35.32" fx="37.53" fy="35.32" r="27.81" gradientUnits="userSpaceOnUse">
      <stop offset="0" stop-color="#78e05b"/>
      <stop offset="1" stop-color="#0d9c00"/>
    </radialGradient>
    <radialGradient id="radial-gradient-11" cx="16.49" cy="7.43" fx="16.49" fy="7.43" r="31.37" gradientUnits="userSpaceOnUse">
      <stop offset="0" stop-color="#fff"/>
      <stop offset=".17" stop-color="#f9fcff"/>
      <stop offset=".4" stop-color="#e8f3ff"/>
      <stop offset=".66" stop-color="#cde6ff"/>
      <stop offset=".94" stop-color="#a7d3ff"/>
      <stop offset="1" stop-color="#9ecfff"/>
    </radialGradient>
    <radialGradient id="radial-gradient-12" cx="53.07" cy="18.46" fx="53.07" fy="18.46" r="16.18" gradientUnits="userSpaceOnUse">
      <stop offset="0" stop-color="#fff"/>
      <stop offset="1" stop-color="#848431"/>
    </radialGradient>
    <radialGradient id="radial-gradient-13" cx="9.14" cy="35.59" fx="9.14" fy="35.59" r="27.45" xlink:href="#radial-gradient-9"/>
    <radialGradient id="radial-gradient-14" cx="16.62" cy="48.15" fx="16.62" fy="48.15" r="17.36" xlink:href="#radial-gradient-10"/>
    <radialGradient id="radial-gradient-15" cx="16.37" cy="48.42" fx="16.37" fy="48.42" r="16.8" xlink:href="#radial-gradient-12"/>
    <radialGradient id="radial-gradient-16" cx="28.42" cy="16.49" fx="28.42" fy="16.49" r="20.79" gradientUnits="userSpaceOnUse">
      <stop offset="0" stop-color="#f2f6ff"/>
      <stop offset="1" stop-color="#000"/>
    </radialGradient>
    <radialGradient id="radial-gradient-17" cx="15.87" cy="27.85" fx="15.87" fy="27.85" r="18.01" gradientUnits="userSpaceOnUse">
      <stop offset="0" stop-color="#c5c55c"/>
      <stop offset="1" stop-color="#000a00"/>
    </radialGradient>
    <radialGradient id="radial-gradient-18" cx="25.23" cy="4.31" fx="25.23" fy="4.31" r="8.96" gradientTransform="translate(.26 7.36) rotate(-15.82)" xlink:href="#radial-gradient"/>
    <radialGradient id="New_Gradient_Swatch_76-2" data-name="New Gradient Swatch 76" cx="26.2" cy="9.84" fx="26.2" fy="9.84" r="12.75" gradientTransform="translate(.26 7.36) rotate(-15.82)" xlink:href="#New_Gradient_Swatch_76"/>
    <radialGradient id="radial-gradient-19" cx="25.17" cy="45.64" fx="25.17" fy="45.64" r="31.94" gradientTransform="translate(20.37 -2.89) rotate(21.04)" xlink:href="#radial-gradient"/>
    <radialGradient id="New_Gradient_Swatch_76-3" data-name="New Gradient Swatch 76" cx="27.34" cy="55.09" fx="27.34" fy="55.09" r="27.89" gradientTransform="translate(20.37 -2.89) rotate(21.04)" xlink:href="#New_Gradient_Swatch_76"/>
    <radialGradient id="radial-gradient-20" cx="9.86" cy="41.23" fx="9.86" fy="41.23" r="16.26" gradientTransform="translate(-2.72 .37) rotate(-4.66)" xlink:href="#radial-gradient"/>
    <radialGradient id="New_Gradient_Swatch_76-4" data-name="New Gradient Swatch 76" cx="8.94" cy="43.93" fx="8.94" fy="43.93" r="18.16" gradientTransform="translate(-2.72 .37) rotate(-4.66)" xlink:href="#New_Gradient_Swatch_76"/>
    <radialGradient id="radial-gradient-21" cx="32.33" cy="23.18" fx="32.33" fy="23.18" r="22.62" gradientTransform="translate(2.6 -4.75) rotate(8.88)" xlink:href="#radial-gradient"/>
    <radialGradient id="New_Gradient_Swatch_76-5" data-name="New Gradient Swatch 76" cx="34.73" cy="26.67" fx="34.73" fy="26.67" r="23.25" gradientTransform="translate(2.6 -4.75) rotate(8.88)" xlink:href="#New_Gradient_Swatch_76"/>
    <radialGradient id="radial-gradient-22" cx="48.05" cy="32.1" fx="48.05" fy="32.1" r="24.84" gradientTransform="matrix(1,0,0,1,0,0)" xlink:href="#radial-gradient"/>
    <radialGradient id="New_Gradient_Swatch_76-6" data-name="New Gradient Swatch 76" cx="55.46" cy="36.01" fx="55.46" fy="36.01" r="34.25" gradientTransform="matrix(1,0,0,1,0,0)" xlink:href="#New_Gradient_Swatch_76"/>
    <radialGradient id="radial-gradient-23" cx="50.05" cy="31.9" fx="50.05" fy="31.9" r="9.6" gradientTransform="translate(16.68 -5.39) rotate(3.19)" xlink:href="#radial-gradient"/>
    <radialGradient id="New_Gradient_Swatch_76-7" data-name="New Gradient Swatch 76" cx="48.75" cy="34.68" fx="48.75" fy="34.68" r="9.87" gradientTransform="translate(16.68 -5.39) rotate(3.19)" xlink:href="#New_Gradient_Swatch_76"/>
    <radialGradient id="radial-gradient-24" cx="44.84" cy="56.68" fx="44.84" fy="56.68" r="32.33" gradientTransform="matrix(1,0,0,1,0,0)" xlink:href="#radial-gradient"/>
    <radialGradient id="New_Gradient_Swatch_76-8" data-name="New Gradient Swatch 76" cx="47.95" cy="58.95" fx="47.95" fy="58.95" r="22.46" gradientTransform="matrix(1,0,0,1,0,0)" xlink:href="#New_Gradient_Swatch_76"/>
  </defs>
  <g class="cls-35">
    <g id="Layer_2" data-name="Layer 2">
      <g id="Layer_1-2" data-name="Layer 1">
        <g>
          <path class="cls-29" d="M16.18,6.8c-.6.3-1.11.77-1.47,1.26.17-.65.07-1.59-1.13-1.72-3.37-.38-5.3,3.92-6.04,6.25-1.38-.77-3.65-.5-5.01,1.33-2.01,2.7-1.52,6.53-.45,9.59-.82-.07-1.39.37-1.72,1.12-1.19,2.75.72,7.23,2.5,7.89,2.93,1.09,16.55-20.56,16.79-24.2.14-2.15-2-2.26-3.48-1.52h0Z"/>
          <path class="cls-3" d="M2.36,24.1c-2.59-.68-1.98,5.53-.41,7.77.3.31.61.54.92.66,2.47.92,12.53-14.3,15.78-21.3.93-3.78-1.42-5.9-4.57-1.79.2-.82-.13-1.86-.52-2.06-2.33-1.22-5.09,3.81-6.67,7.91.14-.72.27-1.24.43-1.85-6.1-.38-5.35,7.58-4.54,11.64-.14-.33-.27-.65-.41-.98h0Z"/>
        </g>
        <g>
          <path class="cls-5" d="M33.97,2.99c17.47,0,31.63,14.16,31.63,31.63s-14.16,31.63-31.63,31.63S2.34,52.09,2.34,34.62,16.5,2.99,33.97,2.99h0Z"/>
          <path class="cls-20" d="M33.97,2.99c17.47,0,31.63,14.16,31.63,31.63s-14.16,31.63-31.63,31.63S2.34,52.09,2.34,34.62,16.5,2.99,33.97,2.99h0Z"/>
          <path class="cls-4" d="M33.31,54.68c-.48.1-.85-.05-1.11.27-.36.44-.33,1.03.78.98.52-.02.09.86.53,1.02,1.16.41,2.25.23,3.04-.67.27-.31.42-.43,1.12-.6.55-.14-.58-.52,1.05-.86,1.79-.37.49-.58,1.7-1.61.35-.3-.86-1.12.74-1.6,1.27-.38,1.21-.28,1.39-1.52.1-.66-.18-.6-.83-.69-.9-.12-.89,1.29-2.03,1.58-.69.18-1.88.75-1.76,1.58.14.98-1,1.77-1.02.08-.02-1.29-.82-1.26-1.11-.6-.14.33-.21.79-.35,1.08-.29.64-.8.72-1.11,1.04-.28.29-.41.39-1.05.53h0ZM26.47,5.87c.13-.01.25-.05.37-.08.25-.07.5-.18.76-.21.94-.12,1.89-.25,2.84-.26.21,0,.38.2.59.24.29.06.58.07.87.06.38-.01.75-.17,1.13-.13.81.08,1.62.23,2.39.48.68.22,1.27.65,1.94.9.44.17.93.16,1.36.35.47.2.94.44,1.3.8.35.34.52.83.78,1.25,0,.02.02.03.04.04.32.28.63.58.98.84.35.26.77.42,1.12.69.32.25.61.54.86.86.3.39.58.8.78,1.25.35.77.57,1.59.85,2.39.42,1.2,1.02,2.35,1.23,3.6.22,1.25.26,2.55.05,3.8-.43,2.6-.89,5.25-1.95,7.66-.31.71-1.44.66-1.95,1.23-.53.58-.61,1.47-1.08,2.11-.22.3-.73.3-.93.62-.82,1.3-1.29,2.78-2.06,4.11-.34.58-.71,1.17-1.23,1.59-.89.71-2,1.09-2.93,1.75-.48.34-.76.96-1.29,1.23-1.32.7-2.79,1.07-4.16,1.65-.16.07-.28.2-.44.28-.75.38-1.5.74-2.26,1.08-.56.25-1.11.61-1.72.67-.46.05-.88-.3-1.34-.36-.36-.05-.72,0-1.08.05-.42.06-.85.11-1.23.28-.54.24-.95.78-1.52.95-.29.09-.64-.05-.87-.23-.28-.22-.28-.69-.57-.9-.21-.16-.53-.07-.8-.13-.6-.13-1.28-.1-1.8-.44-.39-.25-.51-.77-.72-1.18-.14-.28-.07-.71-.33-.87-.28-.17-.65.07-.98.05-.23-.01-.58.06-.67-.15-.14-.32.27-.7.15-1.03-.08-.21-.39-.28-.62-.26-.32.03-.56.4-.87.39-.32-.02-.58-.28-.82-.49-.38-.32-.72-.69-1.02-1.09-.11-.15-.16-.35-.17-.54,0-.21.2-.41.14-.6-.06-.18-.37-.19-.45-.36-.08-.16.09-.36.03-.53-.03-.08-.17,0-.24-.01-.42-.11-.88-.15-1.26-.37-.16-.09-.24-.32-.23-.5.02-.24.35-.41.31-.64-.04-.22-.3-.33-.49-.45-.15-.09-.33-.11-.49-.18-.02,0,0-.03,0-.05.03-.15.03-.31.1-.45.09-.18.28-.29.37-.46.09-.17.16-.36.17-.55,0-.1-.03-.24-.13-.27-.3-.1-.63-.02-.94-.09-.15-.04-.29-.12-.39-.23-.12-.14-.23-.33-.23-.51,0-.73.23-1.45.23-2.18,0-.33-.1-.66-.21-.98-.13-.38-.43-.71-.51-1.11-.07-.31,0-.64.08-.95.08-.33.28-.61.41-.93.12-.3.27-.59.33-.9.06-.33.03-.67.03-1,0-.52-.12-1.05-.05-1.57.06-.51.2-1.03.44-1.49.23-.44.63-.76.93-1.16.13-.17.26-.35.36-.54.14-.29.25-.59.36-.9.14-.41.21-.86.39-1.26.25-.59.48-1.21.87-1.72.27-.35.76-.49,1.08-.8.28-.27.49-.61.72-.93.28-.38.46-.83.8-1.16.24-.22.64-.21.87-.44.24-.24.25-.66.49-.9.46-.47,1.1-.72,1.57-1.18.31-.3.49-.71.72-1.08.25-.4.4-.87.72-1.21.23-.24.56-.35.87-.46.53-.18,1.09-.22,1.62-.41.23-.08.41-.26.62-.39.54-.34,1.1-.66,1.62-1.03.36-.25.65-.6,1.03-.82.37-.22.78-.38,1.2-.51.19-.06.41-.02.6-.08.21-.07.39-.23.6-.3.36-.11.73-.18,1.11-.23.28-.04.56,0,.84-.03h0ZM43.76,8.19c-.27,0-.22-.01-.46.08-.03.43-.16.29.08.7.43.73-.49.76.14,1.61.17.23.97-.14.99.34.01.35.84-.15,1.19.92.03.11.23.26.32.65.27,1.12-.69.32-.45,1.2.08.31.54.13.57.66,0,.05.61.49.7.85.16.73.94.63.93-.35,0-.35.15-.7,0-1.18-.18-.57-.22-1.6-.74-2.04-.16-.14-.73-.29-.73-.51,0-1.37-.8-.64-.89-1.67-.03-.35-.83-.33-.86-.73-.02-.24-.39-.51-.68-.51h-.08ZM42.66,35.33c-1.35-.19-.5,1.26-1.38,1.93-.28.22-.41,1.11-.69,1.29-.33.21-.29,1.48,1.11.56.86-.56-.02-.68,1.96-.59.96.04,1.47-.72,1.01-1.54-.47-.84.85-.58.28-1.66-.43-.82.69-.44,1.18-2.07.37-1.23-.58-.12-.45-1.56.04-.41-.6-.21-.93.14-1.07,1.14-.77.36-.79,2.13,0,.43-.56.51-.98.87-.36.3-.14.52-.31.5h0ZM36.76,43.43c-1.54-.31-1.68.82-2.09,1.13-.09.07-.04.55-.69.7-.35.08-1.1.66-1.94.64-.29,0-2.27,1.58-.13,1.52,1.06-.03,2.22-1.13,3.77-1.08.61.02,1.85-.47,2.11-1.16.28-.74,1.52-.22,1.34-1.67-.06-.49.51-.36.49-1.15,0-.24.06-.78-.02-1.18-.15-.74-.76-.66-.95.31-.07.35-.21.75-.66,1.04-.64.41-.74-.1-1.04.83-.03.1-.1.09-.19.07h0ZM40.76,29.62c-.8.19-.19,1.42-.91,1.93-.28.2.4.75-.68,1.46-.46.3-.47,1.57-1.86,2.3-.51.27-.86.63-1.51.68-.67.05-.47.47-1.29.57-.11.01-1.71,1.02-1.75.65-.11-.02-.05-.77.64-.9,0,0,.57-.36.83-.46,1.57-.56,1.34-1.82,1.59-1.88.51-.12,1.03-1.32,1.47-1.41.24-.05.62-.82.4-1.3-.19-.41.55-1.29,1.09-1.3,1.27-.01.03-1.11,1.4-1.39.38-.08.38-.55.61-.62,1.2-.36,1.05-3.85,1.82-3.36.01,0,.99,2.56.31,2.87-1.29.59.4,1.34-.93,2.08-.42.23-.83,0-1.25.1h0Z"/>
          <path class="cls-1" d="M43.85,55.02c-1.66.04-1.41-.88-2.85.66-.45.48-.94,1.04-1.16,1.25-.3.28-.62.57-.98.77-.37.21-.83.22-1.18.46-.32.22-.41.72-.77.87-1.02.45-2.21-.57-3.19-.67-2.02-.2-3.52,1.37-4.73,1.7-.34.09-.69-.37-1.03-.26-.41.14-.51.81-.93.93-.36.1-.8-.1-1.08-.36-.73-.7-.92-2.08-2.11-2.67-1.58-.78-5.82-1.87-6.84-2.72-.73-.61-.9-1.71-1.59-2.36-.34-.32-.97-.12-1.34-.41-.56-.44.28-1.32-1.77-1.24-2.06.08-3.39,1.65-2.75-3.34.06-.49.34-1.7-.57-1.08-.63.43-1.41,1.73-2.57,1.39-.38-.11-.55-.64-.57-1.03-.02-.74.27-1.45.46-2.16.29-1.06.73-2.07.98-3.14.24-1.02-.42-1.15-.93-.62-.55.58-.94,1.34-1.59,1.8-.73.52-1.13-1-1.03-1.59.12-.67.51-1.27.87-1.85.17-.28.21-.51-.16-.37-.33.12-.78.32-1.18.42-.17.04-.37-.04-.26-.31.4-1,.91-2.01.98-3.08.03-.43-.59-.67-.72-1.08-.09-.3.16-.62.1-.93-.04-.22-.36-.34-.36-.57,0-.61.26-1.2.36-1.8.07-.43.16-.86.13-1.29-.05-.63-.59-.46-.69-1.31-.32,1.81-.49,3.68-.49,5.58,0,17.47,14.16,31.63,31.63,31.63s31.63-14.16,31.63-31.63c0-13.35-8.27-24.76-19.96-29.41.1.05.2.11.3.16,1.58.87.93,1.23,1.16,1.52.17.22.45.34.69.49.64.39,1.35.68,1.95,1.13.21.15.3.43.44.64.24.37.4.78.69,1.11.21.23.64.24.77.51.16.32.07.62.31.89.34.38,1.2.1,1.75,1.32.17.38-.16,1.56.15,2.26.25.57.67,1.07,1.08,1.54.55.63,1.37,1.03,1.8,1.75.33.56.66,1.23.69,1.88.02.3-.07.61-.21.87-.16.3-.63.43-.67.77-.17,1.63,2.77,5.36,3.42,7.43.54,1.74.84,3.58.82,5.4,0,.46-.56,1.42-.87,1.08-.72-.79-.12-3.16-1.03-4.4-.93-1.27-1.17,1.15-1.13,1.57.25,2.36,1.63,2.79.46,5.19-.11.22-.76.74-.98.62-.29-.17-.16-.69-.41-.93-.11-.1-.32.04-.41.15-.31.4-.68.83-.72,1.34-.07.85.37,1.67.41,2.52.02.37-.15.73-.26,1.09-.11.35-.22.7-.39,1.03-.14.28-.39.49-.51.77-.14.33-.15.71-.26,1.05-.1.3-.18.62-.36.87-.21.3-.62.45-.8.77-.2.36-.08.86-.31,1.21-.16.25-.61.21-.77.46-.22.35-.03.88-.28,1.21-.15.2-.59-.09-.75.1-.26.31-.06.86-.31,1.18-.16.21-.5.27-.75.21-.19-.05-.16-.36-.31-.49-.84-.71-.84-.09-1.11.21-.23.26-.52.21-.75.1-.48-.23-.58-1.22-.75-1.62-.13-.33-.72-.11-.93.33-.18.41-.1.89-.26,1.31-.05.14-.29.14-.33.28-.3.95.13,1.9-1.13,2.65-.29.17-.64.25-.98.26h0Z"/>
          <path class="cls-34" d="M2.44,28.92c-.33.9-1.06,2.46-1.08,2.67-.02.22.39,1.25.41,1.9.02.49-.36,1.27-.31,1.44.58,1.79.84,3.68,1.08,5.55.07.51-.21,1.37-.15,1.54.1.3,1.08,2.23,1.49,3.39.18.51-.02,1.13.26,1.59,1.15,1.92,1.36,3.74,2.06,5.6.08.22,1.23.85,1.8,1.34,1.69,1.45,1.86,2.18,2.98,3.39.79.86,1.65,1.68,2.6,2.36.64.46,1.44.64,2.11,1.05.47.3.8.8,1.29,1.08.91.52,1.88.92,2.85,1.31.4.16.84.23,1.26.35-.26-.11-.51-.27-.69-.48-.07-.09-.02-.24-.09-.33-.08-.1-.26-.1-.32-.22-.05-.1.08-.24.03-.33-.06-.12-.22-.17-.33-.26-.1-.08-.27-.1-.32-.22-.04-.09.1-.18.09-.28-.01-.12-.06-.25-.15-.33-.18-.16-.48-.17-.64-.35-.09-.09-.11-.27-.05-.39.08-.15.36-.14.42-.3.05-.13-.06-.29-.15-.4-.1-.11-.27-.12-.4-.19-.12-.07-.35-.1-.35-.24,0-.12.23-.06.35-.04.26.06.48.26.75.28.16.02.3-.12.46-.17.16-.05.34-.14.5-.1.2.05.33.26.51.35.08.04.17.02.26.03.34.04.67.14,1.02.13.16,0,.35-.05.42-.19.08-.16.05-.38-.05-.53-.1-.15-.31-.24-.49-.23-.22,0-.39.2-.6.26-.15.04-.32.07-.46.03-.28-.09-.48-.34-.76-.44-.19-.07-.46.09-.62-.04-.53-.42-.85-1.06-1.34-1.53-.11-.1-.28-.18-.42-.15-.31.05-.57.29-.87.37-.11.03-.21-.06-.32-.06-.19,0-.38.09-.57.05-.18-.04-.36-.14-.46-.28-.09-.12-.03-.31-.08-.45-.04-.13-.07-.31-.19-.37-.36-.19-.81-.15-1.17-.33-.09-.05-.02-.22-.09-.3-.18-.19-.44-.3-.62-.49-.04-.04-.06-.19-.01-.17.19.08.31.28.5.37.11.05.25-.01.36.04.14.07.21.27.36.31.23.06.48-.07.72-.04.27.03.51.21.78.23.09,0,.23-.06.23-.15.01-.32-.24-.63-.18-.94.04-.17.26-.33.44-.31.22.03.28.41.5.45.31.06.6-.18.91-.19.24,0,.49.22.72.14.13-.04-.05-.33.06-.4.11-.07.24.15.37.14.12,0,.2-.16.32-.17.13,0,.24.15.37.15.21.01.42-.03.62-.09.15-.04.31-.08.41-.19.12-.13.18-.3.21-.48.01-.12-.03-.25-.1-.35-.15-.19-.42-.27-.54-.48-.05-.1.11-.21.09-.32-.05-.22-.25-.38-.3-.6-.02-.11.14-.19.13-.3-.02-.16-.2-.27-.21-.42,0-.07.21-.04.19-.12-.05-.25-.28-.43-.35-.68-.02-.09.02-.2.1-.24.13-.07.32-.12.45-.05.35.19.56.58.89.8.2.13.44.22.68.24.14.01.35-.01.41-.14s-.16-.28-.13-.42c.02-.12.24-.15.26-.27.01-.1-.26-.15-.19-.22.09-.09.26.07.39.03.23-.08.39-.32.63-.37.1-.02.17.12.27.15.19.07.39.17.59.15.17-.01.29-.19.45-.24.16-.06.37.02.49-.09.11-.11.01-.31.08-.45.04-.08.14-.22.21-.17.11.08.1.26.09.4-.01.16-.15.3-.17.46,0,.06.1.08.1.14,0,.12-.14.25-.09.36.1.21.27.4.49.48.23.08.49.03.72-.05.23-.08.48-.21.59-.42.09-.17-.17-.41-.05-.57.1-.13.34.05.49-.01.16-.07.36-.19.39-.36.03-.21-.25-.38-.24-.59,0-.26.08-.55.27-.72.31-.27.79-.27,1.13-.49.06-.04.03-.17-.01-.23-.05-.07-.17-.07-.22-.14-.16-.21-.31-.44-.39-.69-.03-.09,0-.23.08-.28.11-.07.28.05.4-.01.11-.06.08-.26.19-.32.17-.09.41,0,.58-.09.27-.15.49-.38.68-.63.05-.07.02-.18-.01-.26-.04-.08-.17-.12-.18-.21-.02-.14-.02-.33.09-.42.18-.16.5-.1.68-.26.12-.11.02-.34.13-.46.08-.09.29.03.35-.08.15-.28.24-.62.21-.94-.02-.15-.18-.3-.33-.32-.26-.04-.52.08-.77.15-.07.02-.12.1-.19.12-.12.02-.3.08-.36-.03-.06-.11.14-.21.18-.32.03-.09-.02-.19.03-.27.13-.24.36-.42.48-.67.07-.16.2-.4.06-.51-.23-.2-.59-.21-.9-.19-.2.01-.33.23-.53.28-.27.07-.59-.07-.82.08-.16.1-.06.38-.17.54-.05.08-.2.05-.27.12-.07.08-.12.19-.13.3-.02.23.21.53.05.69-.14.15-.44,0-.6-.12-.15-.11-.1-.4-.26-.5-.2-.13-.49-.23-.72-.14-.32.12-.53.43-.73.71-.12.16-.01.52-.21.57-.27.07-.51-.41-.78-.32-.35.11-.56.49-.75.81-.08.13.13.35.03.46-.1.12-.32,0-.46.05-.16.07-.24.28-.41.31-.14.02-.25-.18-.39-.17-.13.01-.2.18-.32.23-.27.1-.58.1-.85.22-.13.06-.18.24-.31.3-.12.05-.28-.07-.4-.01-.17.08-.24.39-.42.37-.44-.05-.75-.57-1.2-.57-.31,0-.4.54-.71.6-.18.04-.21-.35-.39-.39-.21-.04-.4.13-.6.18-.3.07-.74-.07-.76-.32-.03-.49.61-1.47,1.62-1.79.5-.16,1.06.11,1.58.01.3-.06.61-.23.8-.48.11-.15.05-.39-.03-.57-.1-.24-.43-.35-.49-.6-.04-.17.17-.31.24-.46.08-.17.04-.48.22-.51.17-.04.28.23.33.4.03.09-.1.16-.12.24-.03.16-.11.34-.04.49.05.1.21.09.32.09.17,0,.34-.08.51-.06.22.02.43.24.64.18.2-.06.35-.28.39-.49.04-.26-.18-.5-.18-.76,0-.47.03-.95.18-1.39.07-.22.37-.32.46-.54.2-.46.15-1,.39-1.44.3-.56.72-1.06,1.18-1.49.34-.31.83-.4,1.18-.69.26-.21.33-.62.62-.8.53-.33,1.24-.33,1.75-.69.37-.26.6-.7.8-1.11.12-.24.27-.57.13-.8-.09-.16-.39,0-.54.1-.43.33-.7.85-1.13,1.18-.55.43-1.2.74-1.8,1.11-.35.21-.74.35-1.05.62-.29.24-.44.62-.72.87-.58.53-1.16,1.08-1.85,1.47-.47.26-1.08.16-1.54.44-.23.14-.13.63-.39.72-.32.11-.67-.29-1-.23-.2.04-.3.3-.39.49-.16.34-.1.78-.33,1.08-.17.22-.56.17-.77.36-.38.34-.58.84-.95,1.18-.3.28-.65.54-1.05.64-.3.07-.67.02-.93-.15-.22-.15-.19-.5-.33-.72-.2-.31-.36-.7-.69-.85-.21-.09-.44.14-.62.28-.28.22-.4.68-.75.77-.4.11-.8-.3-1.21-.23-.26.04-.31.53-.57.54-.28.01-.58-.23-.69-.49-.11-.24.16-.51.13-.77-.03-.26-.34-.47-.28-.72.12-.55.56-.97.77-1.49.08-.2.22-.48.08-.64-.12-.13-.32.15-.49.18-.38.07-.8.25-1.16.1-.29-.12-.51-.49-.49-.8.02-.24.47-.2.59-.41.14-.24-.01-.57.1-.82.06-.14.24-.23.39-.23.23,0,.45.28.67.21.27-.09.33-.51.59-.62.34-.13.75.11,1.08-.03.16-.07.17-.32.15-.49-.04-.39-.37-.74-.31-1.13.03-.21.43-.18.54-.36.11-.18-.03-.46.08-.64.18-.3.45-.55.75-.72.38-.22.95-.11,1.23-.44.22-.25-.03-.67.03-1,.07-.4.14-.81.33-1.16.07-.13.32-.06.41-.18.25-.34.26-.84.57-1.13.21-.2.56-.22.85-.21.27.01.48.28.75.28.15,0,.21-.31.36-.28.2.03.26.4.46.41.24.02.56-.11.64-.33.14-.36-.11-.77-.08-1.16,0-.08.11-.18.18-.15.27.11.46.35.69.51.32.22.61.5.98.64.16.06.41.06.51-.08.31-.41.35-.97.62-1.41.2-.33.43-.69.77-.87.43-.23,1.04-.03,1.44-.31.56-.38.86-1.04,1.29-1.57.26-.32.46-.69.77-.95.27-.22.62-.57.95-.46.24.08-.28.42-.41.64-.16.29-.62.58-.46.87.13.25.56-.1.82-.21.23-.1.45-.58.64-.41.19.16-.14.51-.31.69-.36.4-.78.74-1.23,1.03-.21.14-.53.06-.72.23-.2.19-.16.55-.36.75-.45.45-1.08.71-1.54,1.16-.17.17-.32.42-.31.67,0,.11.22-.05.33-.08.21-.05.42-.14.64-.13.22,0,.42.22.64.18.28-.05.44-.45.72-.44.16,0-.02.33-.1.46-.21.35-.56.6-.77.95-.12.19-.42.58-.21.64.35.1.71-.2,1-.41.51-.38.82-1.01,1.36-1.34.29-.17-.41.54-.54.85-.05.12-.09.29,0,.39.09.09.26.07.39.03.33-.11.73-.19.95-.46.44-.54.54-1.3.95-1.88.09-.12.46-.22.44-.08-.12.61-.61,1.11-.75,1.72-.03.12.2.26.31.21.59-.3,1.13-.71,1.59-1.18.49-.5.78-1.16,1.22-1.7.22-.27.48-.52.77-.71.11-.07.27,0,.4-.05.24-.1.41-.35.67-.39.28-.04.55.21.82.15.28-.06.54-.24.72-.46.13-.16.02-.46.15-.62.28-.32.77-.41,1.03-.75.08-.1-.06-.29-.18-.35-.31-.14-.67-.22-1.02-.18-.22.03-.35.3-.57.36-.17.05-.39-.12-.54-.03-.44.28-.69.81-1.14,1.08-.1.06-.24-.13-.27-.24-.06-.25-.05-.52.01-.77.09-.32.25-.63.44-.91.12-.17.28-.32.46-.4.6-.25,1.21-.49,1.85-.59.31-.05.65.02.94.14.02,0,.08.64.51.48.19-.07.2-.37.33-.53.13-.14.38-.18.45-.36.09-.23.06-.51-.01-.75-.02-.05-.21-.11-.34-.14-.34-.06-.62.23-.78.26-.1.02-.24-.03-.3-.12-.04-.06.04-.14.1-.18.11-.07,1.11-.36,1.34-.45.58-.22,1.13-.54,1.74-.68.22-.05.43.18.66.14.2-.03.32-.28.53-.32.12-.02.27.06.32.17.12.23-.03.59.15.77.41.41,1.05.51,1.49.89.25.21.28.6.51.82.21.2.49.51.77.42.21-.06.01-.44-.05-.64-.14-.46-.47-.86-.55-1.34-.05-.31.21-.61.18-.93-.02-.24-.38-.41-.33-.64.08-.39.56-.6.68-.98.09-.26.03-.57-.09-.81-.07-.14-.27-.2-.42-.22-.25-.02-.5.1-.76.1-.41,0-.83-.2-1.23-.12-.33.07-.6.33-.85.55-.16.14-.19.41-.37.53-.36.23-.82.27-1.2.48-.26.15-.42.45-.69.58-.58.27-1.21.45-1.84.6-.71.17-1.44.31-2.17.36-.13,0-.25-.1-.32-.21-.04-.06-.05-.18.01-.23.17-.14.44-.11.59-.26.21-.21.36-.5.45-.78.08-.27.27-.67.05-.84-.28-.21-.71-.04-1.03.1-.25.11-.42.37-.57.6-.06.11,0,.25-.03.37-.02.09-.02.22-.1.24-.32.1-.7-.02-1.02.12-.55.24-1,.67-1.52.96-.45.26-.91.5-1.39.69-.56.22-1.13.44-1.72.54-.19.03-.41-.02-.57-.14-.08-.06.04-.21,0-.3-.05-.1-.28-.13-.24-.24.1-.37.46-.62.59-.98.05-.14.02-.33-.09-.42-.1-.08-.26,0-.37.05-.48.21-.96.43-1.39.73-.3.21-.47.57-.76.8-.15.12-.34.17-.53.22-.04.01-.11-.02-.12-.06-.02-.09.07-.19.05-.28-.02-.11-.09-.22-.18-.28-.09-.06-.21-.11-.31-.06-.23.12-.41.32-.57.51-.1.12-.07.36-.21.44-.37.21-.86.18-1.23.39-.15.08-.13.31-.26.42-.05.05-.2.07-.22,0-.04-.11.09-.23.1-.35,0-.07-.1-.16-.05-.22.28-.33.69-.53.96-.86.05-.06,0-.2-.06-.23-.15-.07-.35-.09-.5-.01-.93.45-1.82.98-2.67,1.56-.1.07-.12.22-.1.33.01.09.23.13.18.21-.16.28-.49.42-.68.67-.08.11-.05.28-.13.39-.08.1-.27.09-.33.21-.19.34-.26.74-.39,1.11-.05.15-.05.32-.14.45-.11.15-.3.22-.42.36-.33.38-.54.88-.93,1.21-.2.16-.49.19-.75.18-.1,0-.11-.18-.21-.21-.2-.05-.41.06-.6,0-.08-.03-.11-.16-.08-.23.22-.44.54-.84.82-1.25.28-.4.6-.78.85-1.2.04-.07.06-.18,0-.23-.05-.05-.16-.01-.22.03-.14.09-.24.25-.37.36-.08.06-.19.07-.26.14-.07.07-.05.19-.12.27-.39.46-.85.87-1.23,1.34-.26.32-.38.77-.69,1.04-.15.13-.4,0-.58.08-.42.2-.75.56-1.17.75-.07.03-.17-.09-.15-.17.02-.13.19-.19.24-.31.11-.24.08-.55.24-.76.06-.08.18.17.27.13.28-.14.51-.37.69-.62.48-.63.84-1.36,1.31-2,.41-.57.92-1.06,1.34-1.62.18-.24.31-.5.44-.77.02-.04.02-.13-.03-.13-.22.01-.41.17-.63.17-.08,0-.16-.12-.13-.19.34-.69.82-1.3,1.18-1.98.06-.12.15-.28.09-.4-.04-.09-.2-.06-.3-.03-.25.1-.49.23-.68.41-.62.57-1.09,1.3-1.73,1.84-.26.22-.67.17-.93.4-.56.5-.88,1.24-1.45,1.72-.57.48-1.24.83-1.93,1.12-.12.05-.28-.05-.36-.15-.06-.08,0-.21.04-.3.18-.32.47-.58.63-.91.12-.25.03-.58.19-.8.24-.33.66-.47.94-.76.36-.38.66-.8.95-1.23.08-.13.28-.32.17-.42-.13-.12-.38,0-.53.09-.61.39-1.15.88-1.7,1.35-.49.41-1.01.8-1.41,1.29-.23.28-.19.74-.46.98-.27.23-.74.07-1.03.28-.35.25-.48.71-.77,1.03-.28.31-.7.49-.94.84-1.1,1.58-1.35,3.03-1.98,4.76h0Z"/>
          <path class="cls-2" d="M12.6,25.25c-.15.13-.4,0-.58.08-.42.2-.75.56-1.17.75-.07.03-.17-.09-.15-.17.02-.13.19-.19.24-.31.11-.24.08-.55.24-.76.06-.08.18.17.27.13.28-.14.51-.37.69-.62.48-.63.84-1.36,1.31-2,.41-.57.92-1.06,1.34-1.62.18-.24.31-.5.44-.77.02-.04.02-.13-.03-.13-.22.01-.41.17-.63.17-.08,0-.16-.12-.13-.19.34-.69.82-1.3,1.18-1.98.06-.12.15-.28.09-.4-.04-.09-.2-.06-.3-.03-.25.1-.49.23-.68.41-.62.57-1.09,1.3-1.73,1.84-.26.22-.67.17-.93.4-.56.5-.88,1.24-1.45,1.72-.57.48-1.24.83-1.93,1.12-.12.05-.28-.05-.36-.15-.06-.08,0-.21.04-.3.18-.32.47-.58.63-.91.12-.25.03-.58.19-.8.24-.33.66-.47.94-.76.36-.38.66-.8.95-1.23.08-.13.28-.32.17-.42-.13-.12-.38,0-.53.09-.61.39-1.15.88-1.7,1.35-.26.22-.52.43-.77.65-.04.13-.07.27-.12.4-.11.31-.22.61-.36.9-.1.19-.23.37-.36.54-.3.39-.7.72-.93,1.16-.24.46-.37.98-.44,1.49-.07.52.05,1.05.05,1.57,0,.33.04.67-.03,1-.06.31-.21.6-.33.9-.13.31-.33.6-.41.93-.08.31-.14.64-.08.95.08.4.38.72.51,1.11.11.31.21.64.21.98,0,.73-.23,1.45-.23,2.18,0,.19.11.37.23.51.1.12.24.2.39.23.31.07.64-.01.94.09.09.03.13.17.13.27,0,.19-.08.38-.17.55-.09.17-.28.29-.37.46-.07.14-.07.3-.1.45,0,.02-.02.04,0,.05.16.07.34.09.49.18.19.12.45.23.49.45.04.23-.29.41-.31.64-.01.18.07.41.23.5.38.22.84.26,1.26.37.08.02.21-.06.24.01.07.16-.1.37-.03.53.08.17.39.18.45.36.06.2-.15.4-.14.6,0,.19.06.39.17.54.29.4.64.77,1.02,1.09.24.21.5.47.82.49.32.02.56-.36.87-.39.22-.02.54.05.62.26.12.33-.29.71-.15,1.03.09.21.44.14.67.15.33.02.7-.22.98-.05.26.17.19.6.33.87.21.41.33.93.72,1.18.52.33,1.2.31,1.8.44.26.06.58-.03.8.13.28.21.29.68.57.9.24.19.59.32.87.23.57-.17.97-.71,1.52-.95.38-.17.82-.22,1.23-.28.36-.05.72-.1,1.08-.05.46.06.88.41,1.34.36.61-.06,1.16-.42,1.72-.67.76-.34,1.52-.7,2.26-1.08.15-.08.28-.22.44-.28.65-.27,1.31-.5,1.97-.73,0-.08,0-.16.06-.22.08-.09.29.03.35-.08.15-.28.24-.62.21-.94-.02-.15-.18-.3-.33-.32-.26-.04-.52.08-.77.15-.07.02-.12.1-.19.12-.12.02-.3.08-.36-.03-.06-.11.14-.21.18-.32.03-.09-.02-.19.03-.27.13-.24.36-.42.48-.67.07-.16.2-.4.06-.51-.23-.2-.59-.21-.9-.19-.2.01-.33.23-.53.28-.27.07-.59-.07-.82.08-.16.1-.06.38-.17.54-.05.08-.2.05-.27.12-.07.08-.12.19-.13.3-.02.23.21.53.05.69-.14.15-.44,0-.6-.12-.15-.11-.1-.4-.26-.5-.2-.13-.49-.23-.72-.14-.32.12-.53.43-.73.71-.12.16-.01.52-.21.57-.27.07-.51-.41-.78-.32-.35.11-.56.49-.75.81-.08.13.13.35.03.46-.1.12-.32,0-.46.05-.16.07-.24.28-.41.31-.14.02-.25-.18-.39-.17-.13.01-.2.18-.32.23-.27.1-.58.1-.85.22-.13.06-.18.24-.31.3-.12.05-.28-.07-.4-.01-.17.08-.24.39-.42.37-.44-.05-.75-.57-1.2-.57-.31,0-.4.54-.71.6-.18.04-.21-.35-.39-.39-.21-.04-.4.13-.6.18-.3.07-.74-.07-.76-.32-.03-.49.61-1.47,1.62-1.79.5-.16,1.06.11,1.58.01.3-.06.61-.23.8-.48.11-.15.05-.39-.03-.57-.1-.24-.43-.35-.49-.6-.04-.17.17-.31.24-.46.08-.17.04-.48.22-.51.17-.04.28.23.33.4.03.09-.1.16-.12.24-.03.16-.11.34-.04.49.05.1.21.09.32.09.17,0,.34-.08.51-.06.22.02.43.24.64.18.2-.06.35-.28.39-.49.04-.26-.18-.5-.18-.76,0-.47.03-.95.18-1.39.07-.22.37-.32.46-.54.2-.46.15-1,.39-1.44.3-.56.72-1.06,1.18-1.49.34-.31.83-.4,1.18-.69.26-.21.33-.62.62-.8.53-.33,1.24-.33,1.75-.69.37-.26.6-.7.8-1.11.12-.24.27-.57.13-.8-.09-.16-.39,0-.54.1-.43.33-.7.85-1.13,1.18-.55.43-1.2.74-1.8,1.11-.35.21-.74.35-1.05.62-.29.24-.44.62-.72.87-.58.53-1.16,1.08-1.85,1.47-.47.26-1.08.16-1.54.44-.23.14-.13.63-.39.72-.32.11-.67-.29-1-.23-.2.04-.3.3-.39.49-.16.34-.1.78-.33,1.08-.17.22-.56.17-.77.36-.38.34-.58.84-.95,1.18-.3.28-.65.54-1.05.64-.3.07-.67.02-.93-.15-.22-.15-.19-.5-.33-.72-.2-.31-.36-.7-.69-.85-.21-.09-.44.14-.62.28-.28.22-.4.68-.75.77-.4.11-.8-.3-1.21-.23-.26.04-.31.53-.57.54-.28.01-.58-.23-.69-.49-.11-.24.16-.51.13-.77-.03-.26-.34-.47-.28-.72.12-.55.56-.97.77-1.49.08-.2.22-.48.08-.64-.12-.13-.32.15-.49.18-.38.07-.8.25-1.16.1-.29-.12-.51-.49-.49-.8.02-.24.47-.2.59-.41.14-.24-.01-.57.1-.82.06-.14.24-.23.39-.23.23,0,.45.28.67.21.27-.09.33-.51.59-.62.34-.13.75.11,1.08-.03.16-.07.17-.32.15-.49-.04-.39-.37-.74-.31-1.13.03-.21.43-.18.54-.36.11-.18-.03-.46.08-.64.18-.3.45-.55.75-.72.38-.22.95-.11,1.23-.44.22-.25-.03-.67.03-1,.07-.4.14-.81.33-1.16.07-.13.32-.06.41-.18.25-.34.26-.84.57-1.13.21-.2.56-.22.85-.21.27.01.48.28.75.28.15,0,.21-.31.36-.28.2.03.26.4.46.41.24.02.56-.11.64-.33.14-.36-.11-.77-.08-1.16,0-.08.11-.18.18-.15.27.11.46.35.69.51.32.22.61.5.98.64.16.06.41.06.51-.08.31-.41.35-.97.62-1.41.2-.33.43-.69.77-.87.43-.23,1.04-.03,1.44-.31.56-.38.86-1.04,1.29-1.57.26-.32.46-.69.77-.95.27-.22.62-.57.95-.46.24.08-.28.42-.41.64-.16.29-.62.58-.46.87.13.25.56-.1.82-.21.23-.1.45-.58.64-.41.19.16-.14.51-.31.69-.36.4-.78.74-1.23,1.03-.21.14-.53.06-.72.23-.2.19-.16.55-.36.75-.45.45-1.08.71-1.54,1.16-.17.17-.32.42-.31.67,0,.11.22-.05.33-.08.21-.05.42-.14.64-.13.22,0,.42.22.64.18.28-.05.44-.45.72-.44.16,0-.02.33-.1.46-.21.35-.56.6-.77.95-.12.19-.42.58-.21.64.35.1.71-.2,1-.41.51-.38.82-1.01,1.36-1.34.29-.17-.41.54-.54.85-.05.12-.09.29,0,.39.09.09.26.07.39.03.33-.11.73-.19.95-.46.44-.54.54-1.3.95-1.88.09-.12.46-.22.44-.08-.12.61-.61,1.11-.75,1.72-.03.12.2.26.31.21.59-.3,1.13-.71,1.59-1.18.49-.5.78-1.16,1.22-1.7.22-.27.48-.52.77-.71.11-.07.27,0,.4-.05.24-.1.41-.35.67-.39.28-.04.55.21.82.15.28-.06.54-.24.72-.46.13-.16.02-.46.15-.62.28-.32.77-.41,1.03-.75.08-.1-.06-.29-.18-.35-.31-.14-.67-.22-1.02-.18-.22.03-.35.3-.57.36-.17.05-.39-.12-.54-.03-.44.28-.69.81-1.14,1.08-.1.06-.24-.13-.27-.24-.06-.25-.05-.52.01-.77.09-.32.25-.63.44-.91.12-.17.28-.32.46-.4.6-.25,1.21-.49,1.85-.59.31-.05.65.02.94.14.02,0,.08.64.51.48.19-.07.2-.37.33-.53.13-.14.38-.18.45-.36.09-.23.06-.51-.01-.75-.02-.05-.21-.11-.34-.14-.34-.06-.62.23-.78.26-.1.02-.24-.03-.3-.12-.04-.06.04-.14.1-.18.11-.07,1.11-.36,1.34-.45.58-.22,1.13-.54,1.74-.68.22-.05.43.18.66.14.2-.03.32-.28.53-.32.12-.02.27.06.32.17.12.23-.03.59.15.77.41.41,1.05.51,1.49.89.25.21.28.6.51.82.21.2.49.51.77.42.21-.06.01-.44-.05-.64-.14-.46-.47-.86-.55-1.34-.05-.31.21-.61.18-.93-.02-.24-.38-.41-.33-.64.08-.39.56-.6.68-.98.09-.26.03-.57-.09-.81-.07-.14-.27-.2-.42-.22-.25-.02-.5.1-.76.1-.41,0-.83-.2-1.23-.12-.33.07-.6.33-.85.55-.16.14-.19.41-.37.53-.36.23-.82.27-1.2.48-.26.15-.42.45-.69.58-.58.27-1.21.45-1.84.6-.71.17-1.44.31-2.17.36-.13,0-.25-.1-.32-.21-.04-.06-.05-.18.01-.23.17-.14.44-.11.59-.26.21-.21.36-.5.45-.78.08-.27.27-.67.05-.84-.28-.21-.71-.04-1.03.1-.25.11-.42.37-.57.6-.06.11,0,.25-.03.37-.02.09-.02.22-.1.24-.32.1-.7-.02-1.02.12-.55.24-1,.67-1.52.96-.45.26-.91.5-1.39.69-.56.22-1.13.44-1.72.54-.19.03-.41-.02-.57-.14-.08-.06.04-.21,0-.3-.05-.1-.28-.13-.24-.24.1-.37.46-.62.59-.98.05-.14.02-.33-.09-.42-.1-.08-.26,0-.37.05-.48.21-.96.43-1.39.73-.3.21-.47.57-.76.8-.15.12-.34.17-.53.22-.04.01-.11-.02-.12-.06-.02-.09.07-.19.05-.28-.02-.11-.09-.22-.18-.28-.09-.06-.21-.11-.31-.06-.23.12-.41.32-.57.51-.1.12-.07.36-.21.44-.37.21-.86.18-1.23.39-.15.08-.13.31-.26.42-.05.05-.2.07-.22,0-.04-.11.09-.23.1-.35,0-.07-.1-.16-.05-.22.28-.33.69-.53.96-.86.05-.06,0-.2-.06-.23-.15-.07-.35-.09-.5-.01-.93.45-1.82.98-2.67,1.56-.1.07-.12.22-.1.33.01.09.23.13.18.21-.16.28-.49.42-.68.67-.08.11-.05.28-.13.39-.08.1-.27.09-.33.21-.19.34-.26.74-.39,1.11-.05.15-.05.32-.14.45-.11.15-.3.22-.42.36-.33.38-.54.88-.93,1.21-.2.16-.49.19-.75.18-.1,0-.11-.18-.21-.21-.2-.05-.41.06-.6,0-.08-.03-.11-.16-.08-.23.22-.44.54-.84.82-1.25.28-.4.6-.78.85-1.2.04-.07.06-.18,0-.23-.05-.05-.16-.01-.22.03-.14.09-.24.25-.37.36-.08.06-.19.07-.26.14-.07.07-.05.19-.12.27-.39.46-.85.87-1.23,1.34-.26.32-.38.77-.69,1.04h0Z"/>
          <path class="cls-24" d="M25.97,20.94c.55-.24.99-1.21,2-.93.18.05.34,1.1,1.39.59.74-.36,1.29-1.03,2-1.44,1.51-.86,1.99-.06.62,1.49-.58.66-1.19,1.31-1.72,2-.12.16-.23.34-.23.54s.15.38.23.57c.18.43.31.42-.23.8-.34.24-.75.37-1.08.62-.29.21-.59.44-.77.75-.28.47-.36,1.03-.59,1.53-.06.14-.15.27-.23.39.05-.04.09-.08.13-.13.44-.54.54-1.3.95-1.88.09-.12.46-.22.44-.08-.12.61-.61,1.11-.75,1.72-.03.12.2.26.31.21.59-.3,1.13-.71,1.59-1.18.49-.5.78-1.16,1.22-1.7.22-.27.48-.52.77-.71.11-.07.27,0,.4-.05.24-.1.41-.35.67-.39.28-.04.55.21.82.15.28-.06.54-.24.72-.46.13-.16.02-.46.15-.62.28-.32.77-.41,1.03-.75.08-.1-.06-.29-.18-.35-.31-.14-.67-.22-1.02-.18-.22.03-.35.3-.57.36-.17.05-.39-.12-.54-.03-.44.28-.69.81-1.14,1.08-.1.06-.24-.13-.27-.24-.06-.25-.05-.52.01-.77.09-.32.25-.63.44-.91.12-.17.28-.32.46-.4.6-.25,1.21-.49,1.85-.59.31-.05.65.02.94.14.02,0,.08.64.51.48.19-.07.2-.37.33-.53.13-.14.38-.18.45-.36.09-.23.06-.51-.01-.75-.02-.05-.21-.11-.34-.14-.34-.06-.62.23-.78.26-.1.02-.24-.03-.3-.12-.04-.06.04-.14.1-.18.11-.07,1.11-.36,1.34-.45.58-.22,1.13-.54,1.74-.68.22-.05.43.18.66.14.2-.03.32-.28.53-.32.12-.02.27.06.32.17.12.23-.03.59.15.77.41.41,1.05.51,1.49.89.25.21.28.6.51.82.21.2.49.51.77.42.21-.06.01-.44-.05-.64-.14-.46-.47-.86-.55-1.34-.05-.31.21-.61.18-.93-.02-.24-.38-.41-.33-.64.08-.39.56-.6.68-.98.09-.26.03-.57-.09-.81-.07-.14-.27-.2-.42-.22-.25-.02-.5.1-.76.1-.41,0-.83-.2-1.23-.12-.33.07-.6.33-.85.55-.16.14-.19.41-.37.53-.36.23-.82.27-1.2.48-.26.15-.42.45-.69.58-.58.27-1.21.45-1.84.6-.71.17-1.44.31-2.17.36-.13,0-.25-.1-.32-.21-.04-.06-.05-.18.01-.23.17-.14.44-.11.59-.26.21-.21.36-.5.45-.78.08-.27.27-.67.05-.84-.28-.21-.71-.04-1.03.1-.25.11-.42.37-.57.6-.06.11,0,.25-.03.37-.02.09-.02.22-.1.24-.32.1-.7-.02-1.02.12-.55.24-1,.67-1.52.96-.45.26-.91.5-1.39.69-.56.22-1.13.44-1.72.54-.19.03-.41-.02-.57-.14-.08-.06.04-.21,0-.3-.05-.1-.28-.13-.24-.24.1-.37.46-.62.59-.98.05-.14.02-.33-.09-.42-.1-.08-.26,0-.37.05-.48.21-.96.43-1.39.73-.3.21-.47.57-.76.8-.15.12-.34.17-.53.22-.04.01-.11-.02-.12-.06-.02-.09.07-.19.05-.28-.02-.11-.09-.22-.18-.28-.09-.06-.21-.11-.31-.06-.23.12-.41.32-.57.51-.1.12-.07.36-.21.44-.37.21-.86.18-1.23.39-.15.08-.13.31-.26.42-.05.05-.2.07-.22,0-.04-.11.09-.23.1-.35,0-.07-.1-.16-.05-.22.28-.33.69-.53.96-.86.05-.06,0-.2-.06-.23-.15-.07-.35-.09-.5-.01-.93.45-1.82.98-2.67,1.56-.1.07-.12.22-.1.33.01.09.23.13.18.21-.16.28-.49.42-.68.67-.08.11-.05.28-.13.39-.08.1-.27.09-.33.21-.19.34-.26.74-.39,1.11-.05.15-.05.32-.14.45-.11.15-.3.22-.42.36-.33.38-.54.88-.93,1.21-.04.04-.09.06-.14.09.14-.03.27-.06.39-.13.22-.14.36-.38.57-.53.07-.05.18-.1.24-.05.08.05.1.18.08.27-.63,2.3,1.07-.23,1.66-.8.06-.06.21.06.27-.01.47-.59.72-1.57,1.13-2.07.72-.87-.7,3.03.95,1.56.01-.01,2.82-3.81,1.95-1.9-.23.52.46.11.67.03.31-.13.47-.55.8-.62.21-.04.32.35.54.36.48.03.97-.07,1.41-.26h0ZM6.12,23.69c.14-.21.32-.45.57-.51.12-.03.13.26.26.28.12.02.57-.41.98-.05.1.08.09.28.03.39-.23.38-.65.62-.87,1-.3.5.3.69.57.46.45-.39.68-.97,1.08-1.41.26-.29.45-.22.46-.02,0,.43-.28.91,0,.94.11.01.27-.04.39-.18.27-.29.5-.6.69-.94.29-.52.26-1.38.87-1.49.16-.03.3.11.46.13.51.07.61-.88.93-1.36.23-.35.66.06.8.08.12.02.24-.03.33-.1.66-.55.34-.55.46-1.02.05-.19.15-.36.24-.53.43-.78.73-1.27,1.39-1.81,0-.04,0-.08-.02-.11-.04-.09-.2-.06-.3-.03-.25.1-.49.23-.68.41-.62.57-1.09,1.3-1.73,1.84-.26.22-.67.17-.93.4-.56.5-.88,1.24-1.45,1.72-.57.48-1.24.83-1.93,1.12-.12.05-.28-.05-.36-.15-.06-.08,0-.21.04-.3.18-.32.47-.58.63-.91.12-.25.03-.58.19-.8.24-.33.66-.47.94-.76.36-.38.66-.8.95-1.23.08-.13.28-.32.17-.42-.13-.12-.38,0-.53.09-.61.39-1.15.88-1.7,1.35-.49.41-1.01.8-1.41,1.29-.23.28-.19.74-.46.98-.27.23-.74.07-1.03.28-.35.25-.48.71-.77,1.03-.28.31-.7.49-.94.84-.29.41-.52.81-.71,1.21-.2.41-.36.82-.5,1.24.08-.14.17-.29.27-.43.51-.76,1.11-1.45,1.4-1.41.16.02.05.33.03.49-.03.24.12.42.33.05.31-.53.53-1.11.87-1.62h0Z"/>
          <path class="cls-22" d="M9.16,36.34c.14-.24-.01-.57.1-.82.06-.14.24-.23.39-.23.23,0,.45.28.67.21.27-.09.33-.51.59-.62.34-.13.75.11,1.08-.03.16-.07.17-.32.15-.49-.04-.39-.37-.74-.31-1.13.03-.21.43-.18.54-.36.11-.18-.03-.46.08-.64.18-.3.45-.55.75-.72.38-.22.95-.11,1.23-.44.22-.25-.03-.67.03-1,.07-.4.14-.81.33-1.16.07-.13.32-.06.41-.18.25-.34.26-.84.57-1.13.05-.04.1-.08.16-.11-.16.04-.33.07-.45.18-.18.15-.1.68-.45.71-.1,0-.54-.28-.73.03-.14.23.12.71.08.86-.03.09-.19.08-.23.17-.06.12.04.67-.45.87-.27.11-.9-.35-1.12.27-.1.29.25.9-.18,1.07-.13.05-.3.04-.4.14-.09.1,0,.3-.1.39-1.6,1.26-2.9.18-4.42,1.53-.68.6-.64,1.15.06,1.07.31-.03.58-.11.71.16.09.18-.03.43-.15.59-.34.46-1.84,1.07-2.02,1.67-.15.52.85.31.81.57-.02.14-1.22,1.57-.1,2.11.54.26,1.23-.34,1.8-.15.25.08,0,.54.1.77.12.26.48.39.57.67.06.2-.19.41-.15.62.05.29.48.49.41.77-.16.69-1.53,2.07-.99,2.76.37.48,1.7-.61,2.51-1.31,1.58-1.35.42.97,1.56.15.5-.36.85-.9,1.29-1.34.61-.61.73.3,1.7-.1.32-.13.57-.38.86-.57.92-.58.91-.05.59.28-.4.43.16.74.34.28.11-.27.24-.75.39-1.17.27-.79.7-1.32,1.06-.83.1.14.29.18.43-.08.09-.17.22-.74.36-1.18.23-.76.4-.69.31-.03-.03.22-.07.48-.04.68.05.44.33.49.53.06.19-.41.38-1.16.53-1.6.09-.29.37-.67.7-.83.28-.14.3.03.29.16,0,.09.02.16.1.19.51.14,2.2-2.12,2.48-2.57.14-.22.27-.45.45-.64.22-.23,1.05-.63,1.35-.77.42-.2.88-.32,1.29-.55.27-.15.5-.36.71-.59.19-.21.29-.49.45-.73.18-.27.48-.61.61-.37,0-.04-.02-.07-.04-.11-.09-.16-.39,0-.54.1-.43.33-.7.85-1.13,1.18-.55.43-1.2.74-1.8,1.11-.35.21-.74.35-1.05.62-.29.24-.44.62-.72.87-.58.53-1.16,1.08-1.85,1.47-.47.26-1.08.16-1.54.44-.23.14-.13.63-.39.72-.32.11-.67-.29-1-.23-.2.04-.3.3-.39.49-.16.34-.1.78-.33,1.08-.17.22-.56.17-.77.36-.38.34-.58.84-.95,1.18-.3.28-.65.54-1.05.64-.3.07-.67.02-.93-.15-.22-.15-.19-.5-.33-.72-.2-.31-.36-.7-.69-.85-.21-.09-.44.14-.62.28-.28.22-.4.68-.75.77-.4.11-.8-.3-1.21-.23-.26.04-.31.53-.57.54-.28.01-.58-.23-.69-.49-.11-.24.16-.51.13-.77-.03-.26-.34-.47-.28-.72.12-.55.56-.97.77-1.49.08-.2.22-.48.08-.64-.12-.13-.32.15-.49.18-.38.07-.8.25-1.16.1-.29-.12-.51-.49-.49-.8.02-.24.47-.2.59-.41h0ZM9.9,31.43c-.22-.18-.62-.23-.87-.1-.09.05-.14.2-.22.27-.16.12-.65.22-1.01.49-.14.11-.3.22-.38.39-.1.21,0,.25.08.24.51-.04.99-.27,1.49-.36.23-.04.61-.07.92-.08.52,0,.43-.49-.02-.85h0Z"/>
          <path class="cls-28" d="M25.74,42.64c-.12.16-.01.52-.21.57-.27.07-.51-.41-.78-.32-.35.11-.56.49-.75.81-.08.13.13.35.03.46-.1.12-.32,0-.46.05-.16.07-.24.28-.41.31-.14.02-.25-.18-.39-.17-.13.01-.2.18-.32.23-.27.1-.58.1-.85.22-.13.06-.18.24-.31.3-.12.05-.28-.07-.4-.01-.17.08-.24.39-.42.37-.44-.05-.75-.57-1.2-.57-.31,0-.4.54-.71.6-.18.04-.21-.35-.39-.39-.21-.04-.4.13-.6.18-.3.07-.74-.07-.76-.32-.01-.22.11-.53.33-.83-.04.04-.09.09-.13.13-.21.25-.85,1.57-.26,1.55.19,0,.48-.31.73-.18.1.06.1.26.22.28.2.05.36-.33.58-.01.21.31.13.63.76.75.66.13.7-.37.98-.54.09-.05.2.06.3.03.18-.06.44-.71,1.03-.59.16.03.26.29.41.24.15-.04.15-.43.43-.61.26-.16.44.08.61.04.11-.03.13-.12.24-.15.12-.03.17.02.29.02.23,0,.45-.19.68-.15.24.03.53.9,1.22.37.39-.3.18-.97.36-1.43.13-.32.48-.29.49-.04,0,.15-.05.3-.09.44-.05.17-.13.4.15.37.09,0,.18-.05.22-.15.1-.22.09-.48.15-.72.04-.19.12-.38.36-.36.06,0,.12.04.13.11.02.1-.03.21-.05.31-.01.06.05.13.13.08.08-.05.14-.13.19-.21.33-.45.29-.58.7-.6.23-.01.66-.13.76-.37.07-.18-.18-.45-.21-.63-.03-.18.12-.14.22-.11.07.02.14.04.18,0,.16-.16.22-.6.43-.67.16-.06.1.25.32.14.28-.14.24-.31.39-.47.21-.21.47-.2.72-.15-.23-.18-.58-.19-.87-.17-.2.01-.33.23-.53.28-.27.07-.59-.07-.82.08-.16.1-.06.38-.17.54-.05.08-.2.05-.27.12-.07.08-.12.19-.13.3-.02.23.21.53.05.69-.14.15-.44,0-.6-.12-.15-.11-.1-.4-.26-.5-.2-.13-.49-.23-.72-.14-.32.12-.53.43-.73.71h0Z"/>
          <path class="cls-12" d="M53.93,11.13c-.4-.22-.75-.54-1.09-.85-.34-.3-.59-.7-.95-.96-.19-.14-.44-.22-.68-.24-.08,0-.17.07-.19.15-.02.09.02.2.09.27.4.43.86.81,1.3,1.2.34.3.74.53,1.04.87.15.18.15.44.27.64.07.11.16.21.27.28.29.19.65.29.93.5.14.11.26.28.31.45.02.06-.08.16-.14.13-.26-.13-.42-.4-.67-.55-.1-.06-.26-.14-.33-.05-.08.1,0,.27.05.4.04.11.17.18.21.3.02.07-.1.15-.06.22.27.55.61,1.05.94,1.57.13.2.33.37.42.59.04.08.02.21-.05.27-.08.07-.24.12-.32.05-.22-.17-.29-.49-.49-.68-.14-.14-.32-.24-.51-.3-.15-.04-.34-.07-.45.04-.16.16-.22.41-.22.63,0,.15.21.23.24.37.03.14-.09.29-.08.44.02.27.15.53.17.81.02.21-.05.43-.06.64-.03.53-.07,1.06-.06,1.59,0,.23.13.45.09.68-.04.26-.18.52-.19.78-.02.45.05.79.03,1.24,0,.22-.11.4-.12.62-.01.28.1.51.12.79.02.26-.11.51-.13.77-.01.13.01.26.03.39.03.3.14.6.1.9-.03.27-.21.5-.31.75-.1.24-.22.47-.28.72-.05.19.01.4-.05.59-.05.16-.18.33-.18.5,0,.43.21.74.21,1.17,0,.39-.2.75-.36,1.11-.29.65-.8,1.1-1.08,1.64-.07.13-.11.29-.08.44.02.07.14.06.21.05.42-.02,1.07-.33,1.26-.62.25-.4.11-1.05.23-1.39.04-.11.25-.05.33-.13.19-.17.34-.37.46-.59.08-.16.15-.34.13-.51-.05-.35-.29-.65-.33-1-.05-.41,0-.83.08-1.23.04-.22.09-.45.23-.62.08-.09.25,0,.36-.05.11-.06.23-.14.28-.26.09-.2.04-.44.1-.64.03-.1.08-.26.18-.26.12,0,.23.15.26.27.04.21-.12.43-.08.64.03.13.19.19.27.3.04.05.08.11.09.18.02.16-.06.32-.03.48.02.1.07.23.17.26.11.04.29.02.35-.09.15-.31.09-.69.19-1.02.05-.16.22-.26.26-.42.06-.25.09-.53.03-.78-.08-.29-.33-.49-.44-.77-.23-.61.25-.64.35-1.21.04-.22.02-.45-.05-.66-.11-.31-.42-.54-.5-.86-.06-.25.05-.51.08-.77.02-.18.07-.36.08-.54,0-.24-.07-.48-.05-.72.01-.18.11-.34.14-.51.02-.16-.02-.33.01-.49,0-.04.08-.1.1-.06.1.15.16.32.18.5.03.28-.03.57-.05.85-.02.31-.07.62-.06.93.02.73.04.6.51.99.1.08.58.57.73.24.17-.38.14-.83.21-1.25.03-.16.11-.32.08-.48-.05-.22-.25-.38-.32-.59-.03-.1.06-.22.04-.32-.05-.19-.2-.35-.24-.54-.05-.21,0-.44-.01-.66-.01-.12-.09-.23-.08-.35,0-.05.08-.13.13-.1.11.07.17.2.21.32.09.27.09.57.18.84.04.12.18.19.21.31.07.27-.02.57.08.84.07.18.29.26.39.42.07.12.04.29.12.41.09.15.28.24.36.4.09.19.04.44.13.63.15.31.53-.05.49-.24-.06-.28-.27-.36-.39-.62-.04-.1-.01-.3-.05-.4-.08-.2-.28-.32-.37-.51-.05-.11-.06-.23-.02-.34.04-.1.16-.11.2-.22.05-.13.04-.18.08-.31.02-.07.06-.12.1-.19.08-.13.03-.33.14-.44.06-.06.19,0,.23.06.08.13,0,.34.09.46.12.17.37.2.51.35.17.17.27.41.44.58.22.23.4.1.54.71.04.19-.09.41-.01.59.08.21.33.32.45.51.04.07,0,.17.04.24.14.23.36.4.49.63.09.17.12.36.14.55.01.11-.07.23-.03.33.12.27.4.45.51.72.08.19,0,.42.06.6.04.1.14.22.26.22.1,0,.22-.1.23-.21.04-.28,0-.58-.08-.85-.07-.23-.27-.39-.36-.62-.24-.62-.37-1.28-.62-1.9-.19-.47-.47-.89-.69-1.34-.13-.26-.24-.52-.39-.77-.09-.16-.26-.27-.33-.44-.09-.2-.22-.44-.17-.66.03-.12.2.15.27.26.16.25.23.55.4.8.15.21.4.32.54.53.12.18.1.42.21.6.15.26.37.47.54.72.22.33.42.68.62,1.03.19.34.36.69.54,1.03-.37-1.2-.79-2.86-1.34-3.95-.07-.13-1.89-3.48-1.95-3.55-.06-.06-.72-.51-1.03-.82-.27-.27-.44-.63-.69-.93-.21-.24-.49-.42-.69-.67-.18-.22-.36-.7-.44-.72-.37-.1-1.84-.82-2.13-1.05-.27-.22-.38-.62-.67-.82-.24-.16-.58-.06-.84-.2h0ZM51.55,34.15c-.66-.5-.63.89-.93,1.15-.27.23-.44.76-.48,1.09-.09.73-.07.83-.37,1.52-.07.17-.19.53.08.53.72,0,.77-2.47,1.14-2.44.3.02.85-.38.65-.8-.12-.25-.36-.42-.06-.66.14-.11-.01-.37-.03-.38h0Z"/>
          <path class="cls-6" d="M51.95,49.14c-.33-.03-.28-.29-.28-.57,0-.26,1.28-1.5,1.48-1.96.07-.17.51-.87.78-.67.09.07.18.4.48-.08.18-.27.01-.78.76-1.53.16-.16.66-.19.52.48-.12.59.74-.02.78,1.07,0,.09-.15.14-.15.23-.02.25-.77-.04-.77.45,0,.39.55.54.03.95-.27.21.85.67.91,1.08,0,.01.07.17.08.19.02.1-.01.22.05.3.04.05.17.85.6-.07.1-.22.53-.63.73-.33.1.16.27.04.24.62-.02.32.6.83.27,1.18-.15.17-.61.54-.66.63-.07.12-.11.66-.48.58-.01,0-.16-.39-.28-.03,0,.01,0,.05,0,.07-.03.14-.08.28-.09.42-.02.42-.3,1-.76,1-.42,0-.34.25-.61.7-.17.29-.68,1.59-1.16,1.47-.1-.03.14-.43-.15-.43-.26,0-.43.35-.55.56-.15.25.6-.13.39.48-.03.09-.19.34-.26.42-.09.09-.18.18-.28.24-.26.17-1.15.45-1.3.64-.08.1-.12-.09-.29.37-.1.27-1.47.11-1.12.49.14.15.67-.23.63.24-.03.33-1.47-.31-1.3.4.11.47-.68.04-.97.64-.07.14-.56.41-.85.34-.12-.03-1.04.45-1.18.62-.36.44-.66.02-.18-.37.72-.59.06-.38.55-.82.05-.05,1.46-.93.68-.85-.06,0-.61.24-.68.29-.08.06-.58.19-.58.05,0-.58.44-.14.44-.76,0-.22,1.37-.87.28-.68-.37.06-.25-.14-.66.34-.07.09-.72.22-.96.38-.09.06-.2.13-.34.21-.28.17-.56.36-.87.48-.45.17-1.21.88-1.86,1-.23.04-.58.33-1.07.39-1.01.13-.44-.34-.98-.3-.2.01.22.22-.16.48-.35.25-.91.35-1.34.45-.4.1-1.32.21-1.72.12-.16-.04-.61.02-.73.13-.74.71-1.08.91-2.16.59-.3-.09-1.79.21-1.29-.49.17-.24,2.86-.33,3.37-.64.29-.18,1.32.14,1.32-.53,0-.9-.09-.51.6-.96.71-.47.16-.7.8-.9.74-.23.55-.09,1.16-.65.31-.29.43-.44.79-.73.36-.3.54-.08,1.05-.21.08-.02.15-.09.22-.14.31-.21.69-1.04.48-1.38-.12-.18.3-.43-.02-.72-.38-.35.54-1.11.7-1.33.33-.48,1.18-1.07,1-1.62-.06-.18-.71.75-.79.52-.15-.4-1.05.09-.21-1.48.47-.88.44-.32.77-.53.05-.03.03-.25.16-.32.17-.1.25-.31.35-.48.04-.07.35-.85.44-.85.22,0,.26.46.07.71-.26.34-.6,1.15-.48,1.57.06.21-.15.41.1.56.04.02.24.39.43.07.1-.18-.14-.54.5-.54.3,0,.51-.67.95-.95.57-.36.14.74.48.28.03-.04.38-.28.44.03.03.13.14.14.13.45,0,.19.45-.05.59-.29.11-.2,1.02-1.07,1.02-.28,0,.35-.27.43.04.86.02.03-.14.36.34.12,0,0,.58-.69.6-.11,0,.07-.11.31.26.11.39-.21.15-.57.65-.94.31-.23.28-.22.53-.48.63-.66-.11-.5-.26-.02-.02.06-.05.03-.14.02h0ZM47.1,50.83c-.23-.29-.46.33-.46.61,0,.37.05.68-.17.98-.35.48.42,1.46-.22,1.69-.18.07-.29.79-.59,1.02-.11.08-.6.74-.83.9-.2.14.18.22-.1.43-.15.11-1.48,1.17-.64,1.13.54-.02.99-.48,1.48-.75.2-.11.26-.3.72-.48.14-.06.62-.44.64.04,0,.18.58.45.59-.23,0-.38.73.05.89-.57.05-.21,1.01-.08.74-.66-.15-.31.64-.18.09-.48-.27-.15-.5.2-.72-.43-.08-.23-.37-.26-.44.1-.1.44.03.9-.65,1-.37.05-.21-.81-.01-1.05.17-.2-.47-.72-.11-1.28.18-.28-.32-.42-.07-1.15.16-.47-.07-.78-.11-.82h0ZM51.49,52.9c-.05.54.1,1.05.67,1.35.33.18,1.09-.11,1.04-.33-.02-.09-.33.06-.68-.03-.27-.07-.41-.33-.38-.72.05-.69.24-.99.36-1.14.14-.17.57-.44.44-.09-.06.17-1.12,2.65,1.51.7.79-.59,1.58-1.45,1.21-2.41-.54-1.42-3.93.06-4.17,2.67h0ZM53.62,50.53c-.47.4-.89.98-.4.95.09,0,1.17-1.13,1.33-.36.07.33-.48.89-.82,1.02-.07.03-.63.29-.37.4.51.22,1.95-1.05,2.05-1.87.05-.4-.29-.55-.63-.57-.44-.03-.83.15-1.16.43h0ZM46.56,45.51c-.25-.36-.63-.05-.59-.75.02-.42.18-.18.1-1.1-.09-1.2,1.28-.23,1.72-1.97.08-.32.26.1.42-.95.05-.33.93-.99,1.05-1.58.04-.21.78-.59.02.93-.09.17-.5,1.21-.36,1.4.12.15.11.67-.27.87-.52.27-.75,1.16-.95,1.7-.33.88-.18,1.37-.98,2.11-.04.04-.93,1.77-.8.5.04-.39.92-.75.64-1.15h0Z"/>
          <path class="cls-21" d="M30.02,3.24c.28-.07,3.38-.76,3.44-.73.74.35,1.23.2,1.59.07.81.29,2.52.32,2.93.4.4.08,2.56.55,3.21.85-.3-.04-1.38-.33-1.74.04-.33.34-.73.2-.77.22-.44.18-.07.45.27.48.3.02.68,0,.78.07,1.23.85,2.57.5,2.8.75.49.51,1.7.43,1.75.63.19.73-.88.07-1.08.45-.18.35-.51.13-1.03,0-1.28-.31-.99.47-.21.51.56.03,1.17.68.84.67-.35-.01-.24.38-.62.36-2.2-.09.43.61.57.86.62,1.05-1.13.07-1.16.07-.96-.07-.24.67-.22.69.18.13,1.57.5,1.61.68.18.84-1.27-.06-1.47-.05-.93.04-.28.74.07.9.37.16,1.14.92,1.15.92.43.14.29-.14.29-.3,0-.86,2.03.19,2.21.37,1.19,1.16-1.85-.28-1.49.5.53,1.17-1.05,1.13-1.14.57-.1-.71-.99-1.21-1.66-1.21-.58,0-.64-.22-.67-.44-.1-.75-1.14-.52-1.06,0,.03.22.18.48.31.68.2.3.21.47.09.73-.19.41-.62-.3-.81-.49-.56-.56-.5-.97-.47-1.28.07-.53-.13-.83-.94-.7-.28.04-.45-.2-.54-.28-.39-.35-.97-.62-1.14,0-.06.25.15,1.94-.32,2.03-.93.19-.33-1.08-.48-1.24-.34-.38-.03-1.08-.22-1.28-.54-.55-.55.97-1.01,1.09-.96.27-.2-.59-.19-.61.08-1.26-1.18-.19-1.19-.19-.71.03-1.12,1.38-1.69.88-.52-.45.53-.62.34-1.02-.25-.53-1.14.29-1.61.11-.17-.07.28-1.16-1.18-.07-.87.65-.85-.17-.75-.25.34-.29-.19-.26-.6-.12-.86.31-1.74,1.22-2.3,1.68-.36.3-.67.3-.56-.01.11-.29.35-.6.13-.72-.4-.24-1.48.38-1.78.06-.31-.33-.12-.53.19-.66.2-.08,1.57-.42,1.87-.48,1.06-.21,2.65-.35,2.68-.77.06-.77-2.97.52-3.45.39-.65-.18-1.55.86-2.1.38-.57-.5.46-.83.5-.89.59-.83,3.34-.45,3.93-1.22.65-.83-.68-.44-.96-.63-.86-.6,1.73-.62,1.81-.69.89-.78-.69-.3-.91-.31-.59,0-3.48,1.18-3.48.51s1.75-.5,2.55-.95c.47-.26,1.38-.15,1.95-.15,2.33,0,.79-.45.74-.54-.46-.7.55-.35.75-.54.27-.26,1.89-.12,2.29-.05.18.03.65.08.62-.16-.01-.09-.27,0-.11-.19.15-.18-.51-.45-1.18-.34h0ZM21.12,9.88c-1.23-.54-1.22.86-2,.8-.58-.04-1.08.7-1.43,1.11-.46.55-.26.61.19.39.67-.32,1.19-.98,2.05-.84.73.13,0-.8,1.06-.75.56.03.8-.43.13-.72h0ZM16.79,12.54c-.42.29-.18-.12-.44.35-.14.26-.48-.06-.58.4-.03.15-.63.48-.76.68-.09.14-1.19,1.1-.26.76.15-.06.39-.57.92-.78.17-.07.75-.51.75-.68,0-.53.16-.13.51-.46.11-.1-.11-.29-.15-.26h0Z"/>
          <path class="cls-23" d="M62.37,19.89c-.07-.13-1.89-3.48-1.95-3.55-.06-.06-.72-.51-1.03-.82-.27-.27-.44-.63-.69-.93-.21-.24-.49-.42-.69-.67-.18-.22-.36-.7-.44-.72-.1-.03-.28-.1-.5-.2-.58-.26-1.42-.68-1.63-.86-.27-.22-.38-.62-.67-.82-.24-.16-.58-.06-.84-.2-.4-.22-.75-.54-1.09-.85-.34-.3-.59-.7-.95-.96-.19-.14-.44-.22-.68-.24-.08,0-.17.07-.19.15-.02.09.02.2.09.27.4.43.86.81,1.3,1.2.34.3.74.53,1.04.87.15.18.15.44.27.64.07.11.16.21.27.28.29.19.65.29.93.5.14.11.26.28.31.45.02.06-.08.16-.14.13-.26-.13-.42-.4-.67-.55-.1-.06-.26-.14-.33-.05-.08.1,0,.27.05.4.04.11.17.18.21.3.02.07-.1.15-.06.22.27.55.61,1.05.94,1.57.13.2.33.37.42.59.04.08.02.21-.05.27-.08.07-.24.12-.32.05-.22-.17-.29-.49-.49-.68-.14-.14-.32-.24-.51-.3-.1-.03-.24-.05-.34-.02.26.52.64.98,1.02,1.42.55.63,1.37,1.03,1.8,1.75.33.56.66,1.23.69,1.88.02.3-.07.61-.21.87-.14.27-.54.4-.64.67.07.06.18.14.33.26.1.08.58.57.73.24.17-.38.14-.83.21-1.25.03-.16.11-.32.08-.48-.05-.22-.25-.38-.32-.59-.03-.1.06-.22.04-.32-.05-.19-.2-.35-.24-.54-.05-.21,0-.44-.01-.66-.01-.12-.09-.23-.08-.35,0-.05.08-.13.13-.1.11.07.17.2.21.32.09.27.09.57.18.84.04.12.18.19.21.31.07.27-.02.57.08.84.07.18.29.26.39.42.07.12.04.29.12.41.09.15.28.24.36.4.09.19.04.44.13.63.15.31.53-.05.49-.24-.06-.28-.27-.36-.39-.62-.04-.1-.01-.3-.05-.4-.08-.2-.28-.32-.37-.51-.05-.11-.06-.23-.02-.34.04-.1.16-.11.2-.22.05-.13.04-.18.08-.31.02-.07.06-.12.1-.19.08-.13.03-.33.14-.44.06-.06.19,0,.23.06.08.13,0,.34.09.46.12.17.37.2.51.35.17.17.27.41.44.58.22.23.4.1.54.71.04.19-.09.41-.01.59.08.21.33.32.45.51.04.07,0,.17.04.24.14.23.36.4.49.63.09.17.12.36.14.55.01.11-.07.23-.03.33.12.27.4.45.51.72.08.19,0,.42.06.6.04.1.14.22.26.22.1,0,.22-.1.23-.21.04-.28,0-.58-.08-.85-.07-.23-.27-.39-.36-.62-.24-.62-.37-1.28-.62-1.9-.19-.47-.47-.89-.69-1.34-.13-.26-.24-.52-.39-.77-.09-.16-.26-.27-.33-.44-.09-.2-.22-.44-.17-.66.03-.12.2.15.27.26.16.25.23.55.4.8.15.21.4.32.54.53.12.18.1.42.21.6.15.26.37.47.54.72.22.33.42.68.62,1.03.19.34.36.69.54,1.03-.37-1.2-.79-2.86-1.34-3.95h0Z"/>
          <path class="cls-14" d="M12.31,50.96c-2.06.08-3.39,1.65-2.75-3.34.06-.49.34-1.7-.57-1.08-.63.43-1.41,1.73-2.57,1.39-.38-.11-.55-.64-.57-1.03-.02-.74.27-1.45.46-2.16.29-1.06.73-2.07.98-3.14.24-1.02-.42-1.15-.93-.62-.55.58-.94,1.34-1.59,1.8-.73.52-1.13-1-1.03-1.59.12-.67.51-1.27.87-1.85.17-.28.21-.51-.16-.37-.33.12-.78.32-1.18.42-.17.04-.37-.04-.26-.31.4-1,.91-2.01.98-3.08.03-.43-.59-.67-.72-1.08-.09-.3.16-.62.1-.93-.04-.22-.36-.34-.36-.57,0-.61.26-1.2.36-1.8.07-.43.16-.86.13-1.29-.07-.91-1.16-.14-.49-3.2-.18.57-.36,1.15-.59,1.77-.33.9-1.06,2.46-1.08,2.67-.02.22.39,1.25.41,1.9.02.49-.36,1.27-.31,1.44.58,1.79.84,3.68,1.08,5.55.07.51-.21,1.37-.15,1.54.1.3,1.08,2.23,1.49,3.39.18.51-.02,1.13.26,1.59,1.15,1.92,1.36,3.74,2.06,5.6.08.22,1.23.85,1.8,1.34,1.69,1.45,1.86,2.18,2.98,3.39.79.86,1.65,1.68,2.6,2.36.64.46,1.44.64,2.11,1.05.47.3.8.8,1.29,1.08.91.52,1.88.92,2.85,1.31.4.16.84.23,1.26.35-.26-.11-.51-.27-.69-.48-.07-.09-.02-.24-.09-.33-.08-.1-.26-.1-.32-.22-.05-.1.08-.24.03-.33-.06-.12-.22-.17-.33-.26-.1-.08-.27-.1-.32-.22-.04-.09.1-.18.09-.28-.01-.12-.06-.25-.15-.33-.18-.16-.48-.17-.64-.35-.09-.09-.11-.27-.05-.39.08-.15.36-.14.42-.3.05-.13-.06-.29-.15-.4-.1-.11-.27-.12-.4-.19-.12-.07-.35-.1-.35-.24,0-.12.23-.06.35-.04.26.06.48.26.75.28.16.02.3-.12.46-.17.16-.05.34-.14.5-.1.2.05.33.26.51.35.08.04.17.02.26.03.34.04.67.14,1.02.13.16,0,.35-.05.42-.19.08-.16.05-.38-.05-.53-.1-.15-.31-.24-.49-.23-.22,0-.39.2-.6.26-.15.04-.32.07-.46.03-.28-.09-.48-.34-.76-.44-.19-.07-.46.09-.62-.04-.53-.42-.85-1.06-1.34-1.53-.11-.1-.28-.18-.42-.15-.31.05-.57.29-.87.37-.11.03-.21-.06-.32-.06-.19,0-.38.09-.57.05-.18-.04-.36-.14-.46-.28-.09-.12-.03-.31-.08-.45-.04-.13-.07-.31-.19-.37-.36-.19-.81-.15-1.17-.33-.09-.05-.02-.22-.09-.3-.18-.19-.44-.3-.62-.49-.04-.04-.06-.19-.01-.17.19.08.31.28.5.37.11.05.25-.01.36.04.14.07.21.27.36.31.23.06.48-.07.72-.04.27.03.51.21.78.23.09,0,.23-.06.23-.15.01-.32-.24-.63-.18-.94.04-.17.26-.33.44-.31,0,0,.02,0,.03,0-.35-.58-.58-1.26-1.06-1.72-.34-.32-.97-.12-1.34-.41-.56-.44.28-1.32-1.77-1.24h0Z"/>
          <path class="cls-27" d="M17.63,56.84c-.31.05-.57.29-.87.37-.11.03-.21-.06-.32-.06-.19,0-.38.09-.57.05-.18-.04-.36-.14-.46-.28-.09-.12-.03-.31-.08-.45-.04-.13-.07-.31-.19-.37-.36-.19-.81-.15-1.17-.33-.09-.05-.02-.22-.09-.3-.18-.19-.44-.3-.62-.49-.04-.04-.06-.19-.01-.17.19.08.31.28.5.37.11.05.25-.01.36.04.14.07.21.27.36.31.23.06.48-.07.72-.04.27.03.51.21.78.23.09,0,.23-.06.23-.15.01-.32-.24-.63-.18-.94.04-.17.26-.33.44-.31.22.03.28.41.5.45.31.06.6-.18.91-.19.24,0,.49.22.72.14.13-.04-.05-.33.06-.4.11-.07.24.15.37.14.12,0,.2-.16.32-.17.13,0,.24.15.37.15.21.01.42-.03.62-.09.15-.04.31-.08.41-.19.12-.13.18-.3.21-.48.01-.12-.03-.25-.1-.35-.15-.19-.42-.27-.54-.48-.05-.1.11-.21.09-.32-.05-.22-.25-.38-.3-.6-.02-.11.14-.19.13-.3-.02-.16-.2-.27-.21-.42,0-.07.21-.04.19-.12-.05-.25-.28-.43-.35-.68-.02-.09.02-.2.1-.24,0,0,0,0,.01,0-.12.04-.24.11-.27.22-.05.15.15.5-.03.64-.11.09-.51-.03-.45.35.02.15.14.29.12.44-.02.1-.18.1-.23.19-.06.12.02.3-.08.4-.18.18-.48.19-.67.36-.08.07-.08.22-.05.32.07.24.25.43.35.66.08.19-.14.23-.28.22-.21-.02-.76-.28-.93-.14-.32.27-.38.73-.89.28-.24-.21-.38.07-.59-.03-.62-.28-1.49-.77-1.66-.58-.09.1.44,1.05-.33.73-.43-.18-.82-.44-1.23-.66-2.05-1.07-.77.18-.28.94.04.06,0,.17-.05.22-.11.08-.29.01-.39.1-.06.06-.05.2,0,.27.31.45.73.81,1.05,1.25.09.11.15.25.18.39.01.04,0,.13-.05.13-.27,0-.55-.28-.71-.28-.09,0-.32.33-.49.3-.18-.03-.28-.23-.45-.3-.13-.05-.28-.04-.42-.06,0,0,0,0,0,0-.16-.03-.34-.02-.48-.1-.27-.16-.51-.38-.73-.6-.21-.21-.35-.48-.57-.68-.16-.14-.34-.26-.52-.38.94.96,1.23,1.62,2.12,2.59.79.86,1.65,1.68,2.6,2.36.64.46,1.44.64,2.11,1.05.47.3.8.8,1.29,1.08.91.52,1.88.92,2.85,1.31.4.16.84.23,1.25.35-.26-.11-.51-.27-.69-.48-.07-.09-.02-.24-.09-.33-.08-.1-.26-.1-.32-.22-.05-.1.08-.24.03-.33-.06-.12-.22-.17-.33-.26-.1-.08-.27-.1-.32-.22-.04-.09.1-.18.09-.28-.01-.12-.06-.25-.15-.33-.18-.16-.48-.17-.64-.35-.09-.09-.11-.27-.05-.39.08-.15.36-.14.42-.3.05-.13-.06-.29-.15-.4-.1-.11-.27-.12-.4-.19-.12-.07-.35-.1-.35-.24,0-.12.23-.06.35-.04.26.06.48.26.75.28.16.02.3-.12.46-.17.16-.05.34-.14.5-.1.2.05.33.26.51.35.08.04.17.02.26.03.34.04.67.14,1.02.13.16,0,.35-.05.42-.19.08-.16.05-.38-.05-.53-.1-.15-.31-.24-.49-.23-.22,0-.39.2-.6.26-.15.04-.32.07-.46.03-.28-.09-.48-.34-.76-.44-.19-.07-.46.09-.62-.04-.53-.42-.85-1.06-1.34-1.53-.11-.1-.28-.18-.42-.15h0Z"/>
          <path class="cls-18" d="M17.63,56.84c-.31.05-.57.29-.87.37-.11.03-.21-.06-.32-.06-.19,0-.38.09-.57.05-.18-.04-.36-.14-.46-.28-.09-.12-.03-.31-.08-.45-.04-.13-.07-.31-.19-.37-.36-.19-.81-.15-1.17-.33-.09-.05-.02-.22-.09-.3-.18-.19-.44-.3-.62-.49-.04-.04-.06-.19-.01-.17.19.08.31.28.5.37.11.05.25-.01.36.04.14.07.21.27.36.31.23.06.48-.07.72-.04.27.03.51.21.78.23.09,0,.23-.06.23-.15.01-.32-.24-.63-.18-.94.04-.17.26-.33.44-.31,0,0,.02,0,.03,0-.06-.09-.11-.19-.16-.28-.11.03-.21.1-.33.04-.62-.28-1.49-.77-1.66-.58-.09.1.44,1.05-.33.73-.43-.18-.82-.44-1.23-.66-2.05-1.07-.77.18-.28.94.04.06,0,.17-.05.22-.11.08-.29.01-.39.1-.06.06-.05.2,0,.27.31.45.73.81,1.05,1.25.09.11.15.25.18.39.01.04,0,.13-.05.13-.27,0-.55-.28-.71-.28-.09,0-.32.33-.49.3-.18-.03-.28-.23-.45-.3-.13-.05-.28-.04-.42-.06,0,0,0,0,0,0-.16-.03-.34-.02-.48-.1-.27-.16-.51-.38-.73-.6-.21-.21-.35-.48-.57-.68-.16-.14-.34-.26-.52-.38.94.96,1.23,1.62,2.12,2.59.79.86,1.65,1.68,2.6,2.36.64.46,1.44.64,2.11,1.05.47.3.8.8,1.29,1.08.91.52,1.88.92,2.85,1.31.4.16.84.23,1.25.35-.26-.11-.51-.27-.69-.48-.07-.09-.02-.24-.09-.33-.08-.1-.26-.1-.32-.22-.05-.1.08-.24.03-.33-.06-.12-.22-.17-.33-.26-.1-.08-.27-.1-.32-.22-.04-.09.1-.18.09-.28-.01-.12-.06-.25-.15-.33-.18-.16-.48-.17-.64-.35-.09-.09-.11-.27-.05-.39.08-.15.36-.14.42-.3.05-.13-.06-.29-.15-.4-.1-.11-.27-.12-.4-.19-.12-.07-.35-.1-.35-.24,0-.12.23-.06.35-.04.26.06.48.26.75.28.16.02.3-.12.46-.17.16-.05.34-.14.5-.1.2.05.33.26.51.35.08.04.17.02.26.03.34.04.67.14,1.02.13.16,0,.35-.05.42-.19.08-.16.05-.38-.05-.53-.1-.15-.31-.24-.49-.23-.22,0-.39.2-.6.26-.15.04-.32.07-.46.03-.28-.09-.48-.34-.76-.44-.19-.07-.46.09-.62-.04-.53-.42-.85-1.06-1.34-1.53-.11-.1-.28-.18-.42-.15h0Z"/>
          <path class="cls-16" d="M16.43,13.26c0-.53.16-.13.51-.46.11-.1-.11-.29-.15-.26-.42.29-.18-.12-.44.35-.14.26-.48-.06-.58.4-.03.15-.63.48-.76.68-.09.14-1.19,1.1-.26.76.15-.06.39-.57.92-.78.17-.07.75-.51.75-.68h0ZM17.88,12.18c.67-.32,1.19-.98,2.05-.84.73.13,0-.8,1.06-.75.56.03.8-.43.13-.72-1.23-.54-1.22.86-2,.8-.58-.04-1.08.7-1.43,1.11-.46.55-.26.61.19.39h0ZM22.32,10.55c.3.32,1.38-.3,1.78-.06.22.13-.03.43-.13.72-.11.31.2.31.56.01.55-.45,1.43-1.37,2.3-1.68.42-.15.95-.18.6.12-.1.09-.12.9.75.25,1.46-1.09,1.01,0,1.18.07.47.19,1.36-.63,1.61-.11.19.4-.86.57-.34,1.02.57.5.98-.85,1.69-.88,0,0,1.27-1.07,1.19.19,0,.02-.76.87.19.61.46-.13.47-1.64,1.01-1.09.19.19-.12.89.22,1.28.15.16-.45,1.43.48,1.24.47-.1.26-1.79.32-2.03.16-.63.75-.36,1.14,0,.09.09.26.33.54.28.81-.13,1.01.17.94.7-.04.31-.1.72.47,1.28.2.2.62.9.81.49.12-.26.11-.43-.09-.73-.13-.2-.27-.46-.31-.68-.08-.53.96-.76,1.06,0,.03.22.1.44.67.44.67,0,1.55.5,1.66,1.21.08.56,1.67.6,1.14-.57-.12-.27.16-.28.53-.22-.15-.24-.32-.48-.49-.7-.08-.1-.15-.19-.24-.28-.3-.03-.52.05-.52.33,0,.17.14.45-.29.3,0,0-.78-.76-1.15-.92-.35-.16-1-.85-.07-.9.12,0,.7.33,1.1.4-.27-.16-.55-.3-.81-.48-.35-.25-.65-.56-.98-.84-.01-.01-.03-.02-.04-.04-.26-.41-.43-.9-.78-1.25-.36-.36-.83-.6-1.3-.8-.43-.19-.92-.18-1.36-.35-.67-.25-1.26-.68-1.94-.9-.77-.25-1.58-.4-2.39-.48-.38-.04-.75.12-1.13.13-.29,0-.59,0-.87-.06-.21-.04-.38-.24-.59-.24-.95,0-1.9.13-2.84.26-.2.03-.4.1-.6.16-.04.06-.11.13-.21.21-.08.07-2.67.09-1.81.69.28.2,1.61-.2.96.63-.59.77-3.34.39-3.93,1.22-.04.06-1.07.39-.5.89.55.48,1.45-.56,2.1-.38.48.14,3.51-1.16,3.45-.39-.03.43-1.62.57-2.68.77-.29.06-1.67.4-1.87.48-.32.13-.5.33-.19.66h0Z"/>
          <path class="cls-17" d="M13.84,40.01c-.21-.09-.44.14-.62.28-.28.22-.4.68-.75.77-.4.11-.8-.3-1.21-.23-.26.04-.31.53-.57.54-.28.01-.58-.23-.69-.49-.11-.24.16-.51.13-.77-.03-.26-.34-.47-.28-.72.12-.55.56-.97.77-1.49.08-.2.22-.48.08-.64-.12-.13-.32.15-.49.18-.38.07-.8.25-1.16.1-.29-.12-.51-.49-.49-.8.02-.24.47-.2.59-.41.14-.24-.01-.57.1-.82.06-.14.24-.23.39-.23.23,0,.45.28.67.21.27-.09.33-.51.59-.62.34-.13.75.11,1.08-.03.16-.07.17-.32.15-.49-.04-.39-.37-.74-.31-1.13.03-.21.43-.18.54-.36.11-.18-.03-.46.08-.64.18-.3.45-.55.75-.72.38-.22.95-.11,1.23-.44.22-.25-.03-.67.03-1,.07-.4.14-.81.33-1.16.07-.13.32-.06.41-.18.25-.34.26-.84.57-1.13.05-.04.1-.08.16-.11-.16.04-.33.07-.45.18-.18.15-.1.68-.45.71-.1,0-.54-.28-.73.03-.14.23.12.71.08.86-.03.09-.19.08-.23.17-.06.12.04.67-.45.87-.27.11-.9-.35-1.12.27-.1.29.25.9-.18,1.07-.13.05-.3.04-.4.14-.09.1,0,.3-.1.39-1.6,1.26-2.9.18-4.42,1.53-.68.6-.64,1.15.06,1.07.31-.03.58-.11.71.16.09.18-.03.43-.15.59-.14.18-.46.39-.8.61,0,0,0,.02-.01.03-.09.17-.28.29-.37.46-.07.14-.07.3-.1.45,0,.02-.02.04,0,.05.16.07.34.09.49.18.19.12.45.23.49.45.04.23-.29.41-.31.64-.01.18.07.41.23.5.38.22.84.26,1.26.37.08.02.21-.06.24.01.07.16-.1.37-.03.53.08.17.39.18.45.36.06.2-.15.4-.14.6,0,.19.06.39.17.54.29.4.64.77,1.02,1.09.24.21.5.47.82.49.32.02.56-.36.87-.39.22-.02.54.05.62.26.12.33-.29.71-.15,1.03.02.04.04.06.07.09.35-.33.64-.74.98-1.08.61-.61.73.3,1.7-.1.32-.13.57-.38.86-.57.92-.58.91-.05.59.28-.4.43.16.74.34.28.11-.27.24-.75.39-1.17.27-.79.7-1.32,1.06-.83.1.14.29.18.43-.08.09-.17.22-.74.36-1.18.23-.76.4-.69.31-.03-.03.22-.07.48-.04.68.05.44.33.49.53.06.19-.41.38-1.16.53-1.6.09-.29.37-.67.7-.83.28-.14.3.03.29.16,0,.09.02.16.1.19.51.14,2.2-2.12,2.48-2.57.14-.22.27-.45.45-.64.22-.23,1.05-.63,1.35-.77.42-.2.88-.32,1.29-.55.27-.15.5-.36.71-.59.19-.21.29-.49.45-.73.18-.27.48-.61.61-.37,0-.04-.02-.07-.04-.11-.09-.16-.39,0-.54.1-.43.33-.7.85-1.13,1.18-.55.43-1.2.74-1.8,1.11-.35.21-.74.35-1.05.62-.29.24-.44.62-.72.87-.58.53-1.16,1.08-1.85,1.47-.47.26-1.08.16-1.54.44-.23.14-.13.63-.39.72-.32.11-.67-.29-1-.23-.2.04-.3.3-.39.49-.16.34-.1.78-.33,1.08-.17.22-.56.17-.77.36-.38.34-.58.84-.95,1.18-.3.28-.65.54-1.05.64-.3.07-.67.02-.93-.15-.22-.15-.19-.5-.33-.72-.2-.31-.36-.7-.69-.85h0ZM9,32.36c.23-.04.61-.07.92-.08.52,0,.43-.49-.02-.85-.22-.18-.62-.23-.87-.1-.09.05-.14.2-.22.27-.16.12-.65.22-1.01.49-.14.11-.3.22-.38.39-.1.21,0,.25.08.24.51-.04.99-.27,1.49-.36h0Z"/>
        </g>
        <g>
          <path class="cls-15" d="M21.19,4.17c.78-.13,2.69-1.1,3.81-1.41,1.18-.33,1.69-.33,2.93-.37.38-.01.55-.19.58-.42.17-1.21-2.7-2.78-4.28-1.5-1.28-.66-2.92-.79-3.9.63-.76,1.09-1.31,3.43.85,3.07h0Z"/>
          <path class="cls-26" d="M21.1,1.78c-.96.59-1.25,2.08-.27,2.43.11,0,.23-.02.36-.04.78-.13,2.69-1.1,3.81-1.41,1.09-.31,1.6-.32,2.65-.36,1.08-.71-1.31-1.71-2.13-1.62-.85.09-1.04.85-.99,1.3-.92-.51-2.34-.97-3.42-.3h0Z"/>
        </g>
        <g>
          <path class="cls-8" d="M11.56,49.8c-.99-1.21-2.64-4.04-2.11-7.28.47-2.89,2.58-2.82,3.37-2.45-.09-2.3.66-4.74,2.35-6.26,2.19-1.96,4.1.21,3.38,1.9-2.74,6.43-4.56,10.52-1.55,17.77,2.21,5.32,6.64,9.84,11.35,12.25-4.76,1.73-10.84-.5-15.05-5.57-1.4-1.68-2.36-4.36-.9-5.22-.89-.28-2.1-1.52-2.33-2.9-.15-.92.26-2.01,1.49-2.24h0Z"/>
          <path class="cls-30" d="M17.4,38.47c.11-2.5-1.44-3.49-2.98-1.38-1.2,1.64-1.19,4.11-.63,5.4-4.81-1.52-3.56,5.4-1.15,8.16-3.49.77-1.33,4.21,1.12,4.42-2.98,3.62,4.01,10.39,11.07,11.23,1.23.02,2.42-.17,3.54-.58-4.71-2.41-9.14-6.93-11.35-12.25-2.55-6.15-1.62-10.03.39-15h0Z"/>
        </g>
        <g>
          <path class="cls-10" d="M5.25,44.53c.73-1.75-.17-4.04,1.62-11.3.33-1.32.91-2.6,1.32-3.87.09-.27.25-.75-.57-.65-.96.11-2.53,1.79-2.98,2.59-.88,1.54-.6,2.58.09,3.73-2.44.8-4.29,2.65-4.14,5.43.2,3.64,4.04,5.54,4.65,4.07h0Z"/>
          <path class="cls-11" d="M3.38,41.1c-2.66,1.29-2.8-1.47-2.15-3.42-.45.79-.69,1.72-.63,2.79.2,3.64,4.04,5.54,4.65,4.07.73-1.75-.17-4.04,1.62-11.3.33-1.32.91-2.6,1.32-3.87.09-.27.25-.75-.57-.65-.53.06-1.23.59-1.84,1.19.83-.68,1.37-.88,1.42-.71.09.29-.62,1.58-.98,3.31-.25,1.22.14,2.81-1.19,2.67,1.19,2.2.7,4.78-1.65,5.93h0Z"/>
        </g>
        <g>
          <path class="cls-7" d="M15.41,23.45c.32-1.51,1.64-2.91,2.95-3.74-.9-.5-2.66-2.22-.34-5.22,2.24-2.9,6.81-4.71,7.96-1.63.72-.8,1.57-1.38,2.62-1.18.44.08.81.46,1,.91.49-1.71,2.87-4.41,6.14-4.01,4.28.52,5.07,4.49.66,6.07-2.99,1.07-5.71.93-9.12,2.45-3.6,1.6-5.25,2.66-7.41,5.89-.42.62-.71,1.32-1.16,1.92-1.76,2.37-3.88,1.24-3.3-1.45h0Z"/>
          <path class="cls-32" d="M19.9,21.04c-.03,1.2-1.55,3.55-2.58,4.22-.8.52-1.61.51-1.98-.54.24,1.71,1.92,2.13,3.37.18.45-.6.74-1.3,1.16-1.92,2.16-3.23,3.81-4.29,7.41-5.89,3.41-1.52,6.13-1.38,9.12-2.45,4.42-1.58,3.62-5.55-.66-6.07-.11-.01-.22-.02-.32-.03,3.71.76,3.67,3.34,1.81,4.87-1.38,1.14-3.66,1.91-5.81,1.63-.79-.1-1.44-.49-1.92-1.44-.5,2.35-3.25,2.48-3.59-.2.09,4.26-4.1,7.08-7.11,6.36.83.26,1.11.72,1.1,1.28h0Z"/>
        </g>
        <path class="cls-31" d="M63.22,22.18c2.47-4.79-3.35-9.64-6.63-5.85-.96-2.36-5.58-3.14-7.28-.85-.63.85-.88,2.01-.57,3.18-1.4-.87-2.81.04-3.03,2.12-4.63-1.12-11.37,1.38-13.93,7.39-2.22,5.21.29,9.05,4.22,8.68,3.96-.37,4.75-5.1,6.45-7.96,1.02-1.71,2.54-3.97,4.53-2.6.75.51,2.29,1.69,3.87.51,1.78-1.32,3.05-3.86,5.71-5.61,2.77-1.82,5.79-2.23,6.67,1h0Z"/>
        <path class="cls-19" d="M45.39,22.79c-3.13,1.39-4.09,4.97-5.87,7.65-3.25,4.93-8.55,5.71-8.31-.64-1.1,4.35,1.27,7.36,4.78,7.03,3.96-.37,4.75-5.1,6.45-7.96,1.02-1.71,2.54-3.97,4.53-2.6.75.51,2.29,1.69,3.87.51,1.78-1.32,3.05-3.86,5.71-5.61,2.77-1.82,5.79-2.23,6.67,1,1.4-2.71.14-5.43-1.8-6.61.67.8,1.37,1.97.23,2.7-1.15.73-3.88-.38-5-1.22-.07,3.75-3.63,4.48-6.49,2.83.72.47,1.3.99,1.67,1.54,1.38,2.05-.76,3.56-2.41,3.06-.5-.15-.93-.54-1.23-1.24-.48-1.12-1.7-.94-2.8-.45h0Z"/>
        <g>
          <path class="cls-13" d="M67.22,23.79c-.24-.27-.6-.55-.95-.49-.3.05-.54.42-.56.73-.07.96,1.61,3.77,1.2,7-.1.8-.36,1.38-.17,1.52.16.12.7-.08,1.5-.76,1.46-1.24,2.71-3.31,1.31-4.76-.47-.48-1.07-.91-1.77-1.12.15-.76.05-1.44-.54-2.11h0Z"/>
          <path class="cls-33" d="M69.13,28.48c-.14-1.14-1.25-2-2.29-2.16.22-.99-.52-2.23-1.04-1.72.32,1.27,1.47,3.7,1.11,6.43-.1.8-.36,1.38-.17,1.52.11.08.37.02.77-.22,1.12-.97,1.79-2.55,1.63-3.85h0Z"/>
        </g>
        <path class="cls-25" d="M46.73,63.56c-9.67,7.2-18.2-6.77-11.09-9.48-1.89-6.23,2.49-13.72,7.14-12.64,1.08.25,2.14,1.22,2.29,3.13,1.12-4.08,7.11-7.46,7.82-3.14,3.2-5.8,10.86-5.41,8.65,3.83-.94,3.92-2.27,6.13-4.12,8.24-3.34,3.82-10.36,3.02-4.74-3.52.35-.41,1.17-1.44,1.92-2.54,1.57-2.29,1.9-5.18-1.58-3.8-.93.37-2.28,1.52-2.98,1.87-1.77.89-2.7.79-4.39,1.83-4.66,2.86-3.17,5.03-2.86,7.61.2,1.72-.29,2.33-.93,2.74-1.72,1.11-2.95,2.75-1.6,4.86,1.15,1.78,4.35,2.17,6.47.99h0Z"/>
        <path class="cls-9" d="M40.26,62.56c-1.36-2.11-.12-3.75,1.6-4.86.64-.42,1.14-1.03.93-2.74-.31-2.58-1.8-4.76,2.86-7.61,1.69-1.04,2.62-.94,4.39-1.83.7-.35,2.05-1.5,2.98-1.87,3.48-1.38,3.15,1.51,1.58,3.8-.76,1.1-1.57,2.13-1.92,2.54-4.1,4.77-1.47,6.49,1.55,5.58.89-.27,1.59-.7,2.22-1.38,3.17-3.39,5.33-10.1,1.78-12.76-1.43-1.07-3.61-.87-5.81,1.89.89-4.84-6.44-.99-7.64,3.6-.15-5.64-4.93-3.4-5.96,1.15-.61,2.68-.13,5.28.82,7.49-1.73-.24-3.06.52-3.54,1.83-1.66,4.5,5.18,9.36,10.63,6.17-2.12,1.18-5.32.79-6.47-.99h0Z"/>
      </g>
    </g>
  </g>
</svg>