<?xml version="1.0" encoding="UTF-8" standalone="no"?>
<!-- Created with Inkscape (http://www.inkscape.org/) -->

<svg
   width="297mm"
   height="210mm"
   viewBox="0 0 297 210"
   version="1.1"
   id="svg1"
   xml:space="preserve"
   sodipodi:docname="Logo-MedicVerse-Full.svg"
   inkscape:export-filename="Logo-MedicVerse-Full-Updated.png"
   inkscape:export-xdpi="96"
   inkscape:export-ydpi="96"
   inkscape:version="1.4.2 (ebf0e940, 2025-05-08)"
   xmlns:inkscape="http://www.inkscape.org/namespaces/inkscape"
   xmlns:sodipodi="http://sodipodi.sourceforge.net/DTD/sodipodi-0.dtd"
   xmlns="http://www.w3.org/2000/svg"
   xmlns:svg="http://www.w3.org/2000/svg"><sodipodi:namedview
     id="namedview1"
     pagecolor="#ffffff"
     bordercolor="#000000"
     borderopacity="0.25"
     inkscape:showpageshadow="2"
     inkscape:pageopacity="0.0"
     inkscape:pagecheckerboard="0"
     inkscape:deskcolor="#d1d1d1"
     inkscape:document-units="mm"
     inkscape:zoom="0.48753023"
     inkscape:cx="631.7557"
     inkscape:cy="334.33824"
     inkscape:window-width="1440"
     inkscape:window-height="847"
     inkscape:window-x="0"
     inkscape:window-y="25"
     inkscape:window-maximized="1"
     inkscape:current-layer="svg1"
     inkscape:export-bgcolor="#ffffff5f" /><defs
     id="defs1" /><rect
     style="fill:#ffffff;stroke:#ffffff;stroke-width:0.864015;stroke-linecap:round;stroke-linejoin:round;paint-order:stroke fill markers;stroke-opacity:1"
     id="rect1"
     width="265.92111"
     height="178.5062"
     x="-64.569054"
     y="40.425213"
     transform="matrix(1.132664,0,0,1.1826527,72.592343,-48.894391)"
     inkscape:export-filename="mv-logo-wbg.jpg"
     inkscape:export-xdpi="96"
     inkscape:export-ydpi="96" /><g
     id="layer1-8"
     transform="matrix(1.8477395,0,0,2.0671123,-29.576892,-108.14002)"><g
       id="layer1-7-1"
       transform="matrix(0.61299984,0,0,0.57212796,55.294177,28.66106)"><g
         id="g1"><path
           style="fill:none;fill-opacity:1;stroke:#00bc7d;stroke-width:1.18442;stroke-linecap:round;stroke-linejoin:round;stroke-dasharray:none;stroke-opacity:1"
           d="m 20.95833,88.332898 c 7.464885,-1.714559 13.943836,-4.046924 20.256783,-6.836614 6.490424,2.762476 13.324545,5.048195 20.102876,6.735817 0.182423,6.224989 0.06063,12.864509 -0.0556,18.814419 -0.812746,4.52027 -1.943902,8.89992 -6.720366,13.415 -3.194115,2.78459 -9.000579,5.48018 -13.326886,7.73643 -5.210369,-2.02374 -8.614835,-4.5383 -12.980916,-7.87535 -2.983929,-2.54696 -6.17956,-7.89044 -7.174344,-13.08959 -0.40053,-6.13947 -0.274076,-11.958337 -0.101524,-18.900112 z"
           id="path7-5"
           transform="matrix(1.6313218,0,0,1.7478607,-90.202597,-50.095542)" /><path
           style="fill:none;fill-opacity:1;stroke:#67b4e3;stroke-width:1.18442;stroke-linecap:round;stroke-linejoin:round;stroke-dasharray:none;stroke-opacity:1;paint-order:stroke fill markers"
           d="m 26.752545,106.77325 c -1.402202,2.04954 -2.561114,3.99827 -1.40397,6.04781 9.443545,8.33053 36.723956,-10.02666 32.027893,-17.248537 -2.728095,-2.631075 -6.179327,-1.438732 -9.456369,-0.995702"
           id="path9-6"
           transform="matrix(1.6313218,0,0,1.7478607,-90.202597,-50.095542)" /><path
           style="fill:#00bc7d;fill-opacity:1;fill-rule:nonzero;stroke:none;stroke-width:0.592211;stroke-linecap:round;stroke-linejoin:round;stroke-dasharray:none;stroke-opacity:1;paint-order:stroke fill markers"
           d="m 36.202803,99.609684 -0.0148,-6.84169 9.691355,-0.05653 0.06056,6.874427 7.617136,0.01385 -0.03022,3.720289 -0.582712,0.56496 c -1.774352,1.54344 -0.778001,0.68162 -1.977611,1.73758 -1.368344,-0.50338 -1.804009,-0.65073 -3.434877,-0.164 -0.933764,0.66074 -1.50508,1.56547 -1.679742,2.891 0.01085,0.5134 5.46e-4,0.63796 5.46e-4,0.63796 -1.475497,0.76986 -5.303197,2.69221 -9.64464,3.85975 l -0.02373,-4.47636 -7.808368,-0.0276 0.0013,-8.747422 z"
           id="path10-7"
           transform="matrix(1.6313218,0,0,1.7478607,-90.202597,-50.095542)" /><path
           style="fill:#00bc7d;fill-opacity:1;stroke:none;stroke-width:0.619157;stroke-linecap:round;stroke-linejoin:round;stroke-dasharray:none;stroke-opacity:1;paint-order:stroke fill markers"
           d="m 36.192048,116.02987 c 3.283488,-0.91136 7.276489,-2.45982 9.671222,-3.67049 l -0.0037,3.67852 z"
           id="path11-9"
           transform="matrix(1.6313218,0,0,1.7478607,-90.202597,-50.095542)" /><ellipse
           style="fill:#67b4e3;fill-opacity:1;stroke:none;stroke-width:0.636686;stroke-linecap:round;stroke-linejoin:round;stroke-dasharray:none;stroke-opacity:1;paint-order:stroke fill markers"
           id="path12-4"
           cx="49.171841"
           cy="108.00842"
           rx="2.6954076"
           ry="2.3743601"
           transform="matrix(1.6313218,0,0,1.7478607,-90.202597,-50.095542)" /><text
           xml:space="preserve"
           style="font-size:32.5287px;font-family:'FONTSPRING DEMO - Grold Slim SemiLight';-inkscape-font-specification:'FONTSPRING DEMO - Grold Slim SemiLight, ';text-align:start;writing-mode:lr-tb;direction:ltr;text-anchor:start;white-space:pre;inline-size:228.37;display:inline;fill:#00bc7d;fill-opacity:1;fill-rule:nonzero;stroke:#00bc7d;stroke-width:1;stroke-linecap:round;stroke-linejoin:round;stroke-dasharray:none;stroke-opacity:1;paint-order:stroke fill markers"
           x="36.483109"
           y="182.18317"
           id="text12-6"
           transform="matrix(1.1405486,0,0,1.2239574,-19.240254,-78.437446)"><tspan
             x="36.483109"
             y="182.18317"
             id="tspan3">Medic</tspan></text><text
           xml:space="preserve"
           style="font-size:32.5287px;font-family:'FONTSPRING DEMO - Grold Slim SemiLight';-inkscape-font-specification:'FONTSPRING DEMO - Grold Slim SemiLight, ';text-align:start;writing-mode:lr-tb;direction:ltr;text-anchor:start;white-space:pre;inline-size:228.37;display:inline;fill:#000000;fill-opacity:1;fill-rule:nonzero;stroke:#000000;stroke-width:1;stroke-linecap:round;stroke-linejoin:round;stroke-dasharray:none;stroke-opacity:1;paint-order:stroke fill markers"
           x="36.483109"
           y="182.18317"
           id="text12-1-1"
           transform="matrix(1.1405486,0,0,1.2239574,69.549332,-78.700298)"><tspan
             x="36.483109"
             y="182.18317"
             id="tspan4">Verse</tspan></text></g></g></g></svg>
