<?xml version="1.0" encoding="UTF-8" standalone="no"?>
<!-- Created with Inkscape (http://www.inkscape.org/) -->

<svg
   width="210mm"
   height="297mm"
   viewBox="0 0 210 297"
   version="1.1"
   id="svg1"
   xml:space="preserve"
   xmlns="http://www.w3.org/2000/svg"
   xmlns:svg="http://www.w3.org/2000/svg"><defs
     id="defs1" /><g
     id="layer1"><path
       style="fill:none;fill-opacity:1;stroke:#00bc7d;stroke-width:3.22946;stroke-linecap:round;stroke-linejoin:round;stroke-dasharray:none;stroke-opacity:1"
       d="m 50.456853,86.81741 c 20.207632,-4.70877 37.746311,-11.114249 54.835617,-18.775702 17.56974,7.586712 36.06987,13.864085 54.41899,18.498879 0.49382,17.095973 0.16411,35.330383 -0.15051,51.670903 -2.20012,12.41422 -5.26219,24.44226 -18.1922,36.84222 -8.64655,7.64746 -24.36479,15.05046 -36.07621,21.2469 C 91.187944,190.74275 81.971964,183.8369 70.152877,174.67219 62.075305,167.67736 53.424653,153.00232 50.731746,138.72364 49.647501,121.86255 49.989815,105.88192 50.45692,86.81741 Z"
       id="path7" /><path
       style="fill:none;fill-opacity:1;stroke:#67b4e3;stroke-width:3.22946;stroke-linecap:round;stroke-linejoin:round;stroke-dasharray:none;stroke-opacity:1;paint-order:stroke fill markers"
       d="m 66.141938,137.46099 c -3.795796,5.62874 -6.932998,10.98065 -3.800582,16.60939 25.563918,22.87852 99.412664,-27.53668 86.700304,-47.37046 -7.38502,-7.225839 -16.72759,-3.95125 -25.59863,-2.73454"
       id="path9" /><path
       style="fill:#00bc7d;fill-opacity:1;fill-rule:nonzero;stroke:none;stroke-width:1.61473;stroke-linecap:round;stroke-linejoin:round;stroke-dasharray:none;stroke-opacity:1;paint-order:stroke fill markers"
       d="m 91.724024,117.78736 -0.0401,-18.789639 26.234736,-0.15526 0.16395,18.879549 20.61978,0.038 -0.0818,10.21721 -1.57742,1.55158 c -4.80321,4.23883 -2.10606,1.87197 -5.35344,4.77199 -3.70414,-1.38245 -4.8835,-1.78712 -9.2983,-0.45039 -2.52772,1.8146 -4.07429,4.29932 -4.5471,7.93966 0.0294,1.40999 0.001,1.75207 0.001,1.75207 -3.9942,2.1143 -14.35588,7.39374 -26.108276,10.60021 l -0.0642,-12.29362 -21.137448,-0.0759 0.0037,-24.02344 z"
       id="path10" /><path
       style="fill:#00bc7d;fill-opacity:1;stroke:none;stroke-width:1.6882;stroke-linecap:round;stroke-linejoin:round;stroke-dasharray:none;stroke-opacity:1;paint-order:stroke fill markers"
       d="m 91.694914,162.88288 c 8.888476,-2.50293 19.697626,-6.75551 26.180236,-10.08044 l -0.01,10.10248 z"
       id="path11" /><ellipse
       style="fill:#67b4e3;fill-opacity:1;stroke:none;stroke-width:1.736;stroke-linecap:round;stroke-linejoin:round;stroke-dasharray:none;stroke-opacity:1;paint-order:stroke fill markers"
       id="path12"
       cx="126.83154"
       cy="140.85321"
       rx="7.296536"
       ry="6.5208125" /></g></svg>
